<svg fill="#44ce6f" xmlns="http://www.w3.org/2000/svg"  viewBox="0 0 512 512" width="50px" height="50px"><path d="M491.83105,200.97705l-43.85791-23.9223C447.981,176.70282,448,176.3537,448,176a48,48,0,0,0-96,0c0,.3537.019.70282.02686,1.05475L352,177.06934V96a7.99877,7.99877,0,0,0-4.16895-7.02295l-43.85791-23.9223C303.981,64.70282,304,64.3537,304,64a48,48,0,0,0-96,0c0,.3537.019.70282.02686,1.05475L164.169,88.97705A7.99877,7.99877,0,0,0,160,96v81.06934l-.02686-.01459C159.981,176.70282,160,176.3537,160,176a48,48,0,0,0-96,0c0,.3537.019.70282.02686,1.05475L20.169,200.97705A7.99877,7.99877,0,0,0,16,208V320A7.99877,7.99877,0,0,0,20.169,327.023l88,48a7.99937,7.99937,0,0,0,7.6621,0L160,350.93091V440A7.99877,7.99877,0,0,0,164.169,447.023l88,48a7.99937,7.99937,0,0,0,7.6621,0l88-48A7.99877,7.99877,0,0,0,352,440V350.93091L396.169,375.023a7.99937,7.99937,0,0,0,7.6621,0l88-48A7.99877,7.99877,0,0,0,496,320V208A7.99877,7.99877,0,0,0,491.83105,200.97705ZM400,144a32,32,0,1,1-32,32A32.03635,32.03635,0,0,1,400,144Zm0,80a48.06746,48.06746,0,0,0,44.6875-30.51227L471.29346,208,400,246.88721,328.70654,208l26.606-14.51227A48.06746,48.06746,0,0,0,400,224ZM256,366.88721,184.70654,328l26.606-14.51221a47.98026,47.98026,0,0,0,89.375,0L327.29346,328Zm48-69.81787-.02686-.01465C303.981,296.70288,304,296.35376,304,296a48.04061,48.04061,0,0,0-26.23389-42.75977L304,238.93085v58.13849ZM256,264a32,32,0,1,1-32,32A32.03635,32.03635,0,0,1,256,264Zm-48,32c0,.35376.019.70288.02686,1.05469L208,297.06934V238.93085l26.23389,14.30938A48.04061,48.04061,0,0,0,208,296ZM328.54443,189.86322,296,172.23511v18.19641l15.80615,8.56164-3.6372,1.98389A7.99877,7.99877,0,0,0,304,208v12.70557l-40,21.81805V148.749l72-39.2727v76.32031ZM256,32a32,32,0,1,1-32,32A32.03635,32.03635,0,0,1,256,32Zm0,80a48.06746,48.06746,0,0,0,44.6875-30.51227L327.29346,96,256,134.88721,184.70654,96l26.606-14.51227A48.06746,48.06746,0,0,0,256,112Zm-80-2.52374,72,39.2727v93.77466l-40-21.818V208a7.99877,7.99877,0,0,0-4.16895-7.023l-3.6372-1.98382L216,190.43158V172.23511l-32.54419,17.62823L176,185.79657ZM112,144a32,32,0,1,1-32,32A32.03635,32.03635,0,0,1,112,144Zm0,80a48.06746,48.06746,0,0,0,44.6875-30.51227L183.29346,208,112,246.88721,40.70654,208l26.606-14.51227A48.06746,48.06746,0,0,0,112,224Zm-80-2.52374L104,260.749v93.77454L32,315.251Zm88,133.04742V260.749l72-39.27276v70.75885l-32-17.3335v18.19653l27.73633,15.02393-23.56738,12.855A7.99877,7.99877,0,0,0,160,328v4.70557Zm56-13.04736,72,39.2727v93.77454L176,435.251Zm88,133.04724V380.749l72-39.2727V435.251Zm83.83105-153.54651-23.56762-12.855L352,293.09814V274.90161l-32,17.3335V221.47626L392,260.749v93.77466l-40-21.81811V328A7.99877,7.99877,0,0,0,347.83105,320.97705ZM408,354.52356V260.749l72-39.27276V315.251Z"/></svg>