<svg fill="#44ce6f" xmlns="http://www.w3.org/2000/svg"  viewBox="0 0 512 512" width="50px" height="50px"><path d="M 36 16 A 28.031 28.031 0 0 0 8 44 L 8 420 A 28.031 28.031 0 0 0 36 448 L 62.630859 448 A 47.989 47.989 0 0 0 110.61914 496 L 125.67969 496 A 47.746 47.746 0 0 0 173.13086 455.30078 L 174.25 448 L 337.75 448 L 338.86914 455.30078 A 47.746 47.746 0 0 0 386.32031 496 L 401.38086 496 A 47.989 47.989 0 0 0 449.36914 448 L 476 448 A 28.031 28.031 0 0 0 504 420 L 504 44 A 28.031 28.031 0 0 0 476 16 L 36 16 z M 36 32 L 476 32 A 12.01 12.01 0 0 1 488 44 L 488 64 L 24 64 L 24 44 A 12.01 12.01 0 0 1 36 32 z M 40 40 A 8 8 0 0 0 40 56 L 48 56 A 8 8 0 0 0 48 40 L 40 40 z M 72 40 A 8 8 0 0 0 72 56 L 80 56 A 8 8 0 0 0 80 40 L 72 40 z M 104 40 A 8 8 0 0 0 104 56 L 112 56 A 8 8 0 0 0 112 40 L 104 40 z M 24 80 L 488 80 L 488 420 A 12.01 12.01 0 0 1 476 432 L 447.48047 432 L 429.11914 312.69922 A 47.736 47.736 0 0 0 381.67969 272 L 328 272 L 328 268 A 28.031 28.031 0 0 0 300 240 L 212 240 A 28.031 28.031 0 0 0 184 268 L 184 272 L 130.32031 272 A 47.736 47.736 0 0 0 82.880859 312.69922 L 64.519531 432 L 36 432 A 12.01 12.01 0 0 1 24 420 L 24 80 z M 212 256 L 300 256 A 12.01 12.01 0 0 1 312 268 L 312 272 L 200 272 L 200 268 A 12.01 12.01 0 0 1 212 256 z M 130.32031 288 L 224 288 L 224 304 A 8 8 0 0 0 232 312 L 280 312 A 8 8 0 0 0 288 304 L 288 288 L 381.67969 288 A 31.827 31.827 0 0 1 413.31055 315.13086 L 433 443.13086 A 31.98 31.98 0 0 1 425.66016 468.83984 A 31.965 31.965 0 0 1 401.38086 480 L 386.32031 480 A 31.827 31.827 0 0 1 354.68945 452.86914 L 352.82031 440.69922 A 47.754 47.754 0 0 0 305.36914 400 L 206.63086 400 A 47.754 47.754 0 0 0 159.17969 440.69922 L 157.31055 452.86914 A 31.827 31.827 0 0 1 125.67969 480 L 110.61914 480 A 31.995 31.995 0 0 1 79 443.13086 L 98.689453 315.13086 A 31.827 31.827 0 0 1 130.32031 288 z M 240 288 L 272 288 L 272 296 L 240 296 L 240 288 z M 360 312 A 8 8 0 0 0 360 328 A 8 8 0 0 0 360 312 z M 151.76562 312.00391 A 8 8 0 0 0 144 320 L 144 336 L 128 336 A 8 8 0 0 0 128 352 L 144 352 L 144 368 A 8 8 0 0 0 160 368 L 160 352 L 176 352 A 8 8 0 0 0 176 336 L 160 336 L 160 320 A 8 8 0 0 0 151.76562 312.00391 z M 336 336 A 8 8 0 0 0 336 352 A 8 8 0 0 0 336 336 z M 384 336 A 8 8 0 0 0 384 352 A 8 8 0 0 0 384 336 z M 360 360 A 8 8 0 0 0 360 376 A 8 8 0 0 0 360 360 z M 216 368 A 8 8 0 0 0 216 384 L 232 384 A 8 8 0 0 0 232 368 L 216 368 z M 280 368 A 8 8 0 0 0 280 384 L 296 384 A 8 8 0 0 0 296 368 L 280 368 z M 206.63086 416 L 305.36914 416 A 31.8 31.8 0 0 1 333.11914 432 L 178.88086 432 A 31.8 31.8 0 0 1 206.63086 416 z"/></svg>