<svg fill="#44ce6f" xmlns="http://www.w3.org/2000/svg"  viewBox="0 0 512 512" width="50px" height="50px"><path d="M 256 20 C 197.25 20 142.0127 42.459001 100.46289 83.238281 C 58.893551 124.03906 36 178.29 36 236 A 212.85748 212.85748 0 0 0 48.457031 307.74219 C 29.965851 321.06055 20 336.20557 20 352 C 20 374.72266 40.734376 396.38477 78.384766 412.99609 L 81.615234 405.67773 C 47.041014 390.42285 28 371.36035 28 352 C 28 339.19189 36.156879 326.68995 51.349609 315.35352 A 212.63319 212.63319 0 0 0 66.667969 346.07031 L 73.513672 341.92969 A 204.63319 204.63319 0 0 1 58.097656 310.6875 C 71.262816 302.23974 88.491704 294.55175 109.30273 288.01367 L 106.9043 280.38086 C 86.281297 286.85986 68.948246 294.55955 55.316406 303.13086 A 204.85581 204.85581 0 0 1 44 236 C 44 121.30859 139.103 28 256 28 C 372.897 28 468 121.30859 468 236 A 204.86332 204.86332 0 0 1 456.70898 303.05859 C 445.72155 296.18994 432.30127 289.86328 416.58203 284.23438 L 413.88477 291.76562 C 429.71094 297.43262 443.125 303.85887 453.86328 310.78711 A 204.65713 204.65713 0 0 1 438.48633 341.93164 L 445.33203 346.07031 A 212.61783 212.61783 0 0 0 460.60742 315.46094 C 475.80164 326.84129 484 339.36133 484 352 C 484 374.32324 458.44434 396.27832 413.88477 412.23438 L 416.58203 419.76562 C 465.21631 402.35059 492 378.28418 492 352 C 492 336.07275 482.14856 320.9624 463.57617 307.65039 A 212.86075 212.86075 0 0 0 476 236 C 476 178.29 453.10645 124.03906 411.53711 83.238281 C 369.9873 42.459001 314.75 20 256 20 z M 386.06641 24.119141 L 381.93359 30.966797 A 245.72346 245.72346 0 0 1 405.54688 47.185547 L 410.45312 40.867188 A 253.48474 253.48474 0 0 0 386.06641 24.119141 z M 117.80273 29.240234 A 252.70549 252.70549 0 0 0 56.867188 85.546875 L 63.185547 90.453125 A 244.7262 244.7262 0 0 1 122.19727 35.925781 L 117.80273 29.240234 z M 256 52 C 225.03271 52 195.97558 58.125004 174.18164 69.246094 A 3.99861 3.99861 0 0 0 172 72.808594 L 172 179.15234 A 71.73241 71.73241 0 0 1 215.93164 164 L 232 164 A 108.67393 108.67393 0 0 0 296.79883 142.40039 A 11.99958 11.99958 0 0 1 316 152 L 316 176.09375 A 127.73787 127.73787 0 0 1 334.18164 183.5625 A 3.9996 3.9996 0 0 0 340 180 L 340 72.808594 A 3.99861 3.99861 0 0 0 337.81836 69.246094 C 316.02442 58.125004 286.96729 52 256 52 z M 426.71094 54.628906 L 421.28906 60.511719 A 243.38751 243.38751 0 0 1 477.57617 137.67969 L 484.83594 134.32031 A 251.32315 251.32315 0 0 0 426.71094 54.628906 z M 143.88281 92.001953 A 3.9999 3.9999 0 0 0 141.5957 92.802734 A 185.94375 185.94375 0 0 0 84.363281 163.71289 A 3.99592 3.99592 0 0 0 84 165.37695 L 84 245.37695 A 3.99987 3.99987 0 0 0 91.636719 247.04102 A 177.92988 177.92988 0 0 1 146.4043 179.19727 A 4.00024 4.00024 0 0 0 148 176 L 148 96 A 3.9999 3.9999 0 0 0 143.88281 92.001953 z M 368.17969 92.003906 A 3.9999 3.9999 0 0 0 364 96 L 364 144 L 364.05078 144 A 19.9612 19.9612 0 0 0 356 160 L 356 181.11719 L 350.83203 182.83984 A 20.0005 20.0005 0 0 0 338.58789 209.24023 L 347.92188 232.57617 L 333.81445 373.66406 A 12.00231 12.00231 0 0 1 319.26953 384.18555 L 268 372.79102 L 268 337.32617 A 179.03411 179.03411 0 0 0 298.37305 271.86133 L 307.15625 269.4668 A 12.02631 12.02631 0 0 0 316 257.89062 L 316 225.58594 A 11.9947 11.9947 0 0 0 307.14844 214.00781 C 307.70325 205.99536 308 197.90991 308 189.90234 L 308 152 A 3.99972 3.99972 0 0 0 301.59961 148.79883 A 116.72281 116.72281 0 0 1 232 172 L 215.93164 172 A 64.10275 64.10275 0 0 0 155.9082 214.30273 L 154.35352 213.99219 A 11.99927 11.99927 0 0 0 140 225.75977 L 140 258.04688 A 11.924 11.924 0 0 0 148.55273 269.54102 L 151.20312 270.33594 C 151.35072 271.60694 151.51197 272.87549 151.69141 274.13086 A 124.3475 124.3475 0 0 0 175.24609 330.99609 L 180 337.33203 L 180 372.79102 L 142.92773 381.0293 A 60.11494 60.11494 0 0 0 98.597656 421.95508 L 76.177734 494.82227 L 83.824219 497.17578 L 106.24414 424.30859 A 52.09889 52.09889 0 0 1 144.66406 388.83789 L 183.34961 380.24219 A 81.49308 81.49308 0 0 0 264.65039 380.24219 L 317.53516 391.99414 A 19.93526 19.93526 0 0 0 337.91992 384.38672 L 379.5293 432.93164 A 35.88559 35.88559 0 0 1 361.91406 443.39844 L 327.0293 452.11914 A 4.00067 4.00067 0 0 0 324.07812 456.7832 L 332.07812 496.7832 L 339.92188 495.21484 L 332.66992 458.95508 L 363.85352 451.16016 A 44.2259 44.2259 0 0 0 397.15039 410.16406 L 403.9375 233.7207 L 421.29492 216.36133 A 19.87188 19.87188 0 0 0 426.99805 199.74023 L 420.8457 150.51172 A 11.98134 11.98134 0 0 0 416.17383 142.44336 L 415.73438 141.79883 A 185.80059 185.80059 0 0 0 370.4043 92.804688 A 3.9999 3.9999 0 0 0 368.17969 92.003906 z M 263.31445 92.123047 A 217.02442 217.02442 0 0 1 313.11133 99.650391 L 310.88867 107.33594 A 209.0378 209.0378 0 0 0 201.11133 107.33594 L 198.88867 99.650391 A 217.02442 217.02442 0 0 1 263.31445 92.123047 z M 44.646484 102.71094 A 252.56713 252.56713 0 0 0 31.103516 126.19141 L 38.238281 129.80859 A 244.99081 244.99081 0 0 1 51.351562 107.07227 L 44.646484 102.71094 z M 256 124 A 225.88826 225.88826 0 0 1 280.43359 125.3125 L 279.56641 133.26562 A 217.81035 217.81035 0 0 0 256 132 A 200.533 200.533 0 0 0 201.11133 139.33594 L 198.88867 131.65039 A 208.66476 208.66476 0 0 1 256 124 z M 376 148 L 408.9375 148 A 4.00663 4.00663 0 0 1 412.90625 151.50391 L 419.06055 200.73242 A 11.92391 11.92391 0 0 1 415.63867 210.70508 L 397.17188 229.17188 A 3.99691 3.99691 0 0 0 396.00391 231.84766 L 389.15625 409.85742 A 35.77443 35.77443 0 0 1 384.40039 426.32031 L 341.49609 376.26562 C 341.61144 375.67041 341.71264 375.06982 341.77344 374.46094 L 355.98047 232.39844 A 4.00129 4.00129 0 0 0 355.71484 230.51562 L 346.01562 206.26953 A 12.00041 12.00041 0 0 1 353.36328 190.42773 L 361.26562 187.79492 A 4.0004 4.0004 0 0 0 364 184 L 364 160 A 12.01343 12.01343 0 0 1 376 148 z M 304.08008 221.58594 A 3.99978 3.99978 0 0 1 308 225.58594 L 308 257.89062 A 4.00732 4.00732 0 0 1 305.05273 261.74805 L 284 267.49023 L 284 225.15625 L 303.28516 221.65039 A 3.99978 3.99978 0 0 1 304.08008 221.58594 z M 151.99414 221.75781 A 4.09587 4.09587 0 0 1 152.78516 221.83594 L 172 225.67773 L 172 268.22461 L 150.84961 261.87891 A 3.9752 3.9752 0 0 1 148 258.04688 L 148 225.75977 A 4.00087 4.00087 0 0 1 151.99414 221.75781 z M 276 226.61133 L 276 269.67188 L 258.85742 274.34766 A 125.87756 125.87756 0 0 1 189.49805 273.47461 L 180 270.62305 L 180 227.2793 L 198.88086 231.05469 A 133.35091 133.35091 0 0 0 249.13086 231.49609 L 276 226.61133 z M 188 342.71484 A 81.43712 81.43712 0 0 0 260 342.71484 L 260 373.69141 A 73.59434 73.59434 0 0 1 188 373.69141 L 188 342.71484 z M 156.05273 447.3418 L 148.05664 495.34375 L 155.94727 496.6582 L 163.94336 448.65625 L 156.05273 447.3418 z"/></svg>