<svg fill="#44ce6f" xmlns="http://www.w3.org/2000/svg"  viewBox="0 0 128 128" width="50px" height="50px"><path d="M 64 1.3476562 C 61.7525 1.3476562 59.505 1.9250781 57.5 3.0800781 L 14.5 27.910156 C 10.49 30.230156 8 34.539922 8 39.169922 L 8 88.820312 C 8 93.450312 10.49 97.760078 14.5 100.08008 L 57.5 124.91016 C 59.5 126.07016 61.75 126.65039 64 126.65039 C 66.25 126.65039 68.5 126.07016 70.5 124.91016 L 113.5 100.08008 C 117.51 97.770078 120 93.460078 120 88.830078 L 120 39.169922 C 120 34.539922 117.51 30.230156 113.5 27.910156 L 70.5 3.0800781 C 68.495 1.9250781 66.2475 1.3476562 64 1.3476562 z M 64 7.3417969 C 65.21 7.3417969 66.42 7.6542969 67.5 8.2792969 L 110.5 33.109375 C 112.66 34.359375 114 36.679922 114 39.169922 L 114 88.820312 C 114 91.320312 112.66 93.640625 110.5 94.890625 L 67.5 119.7207 C 65.34 120.9707 62.66 120.9707 60.5 119.7207 L 17.5 94.890625 C 15.34 93.640625 14 91.320078 14 88.830078 L 14 39.169922 C 14 36.679922 15.34 34.349375 17.5 33.109375 L 60.5 8.2792969 C 61.58 7.6542969 62.79 7.3417969 64 7.3417969 z M 64 15.964844 C 63.4825 15.964844 62.965 16.099141 62.5 16.369141 C 61.57 16.909141 61 17.900703 61 18.970703 L 61 109.03906 C 61 110.69906 62.34 112.03906 64 112.03906 C 65.66 112.03906 67 110.69906 67 109.03906 L 67 67 L 79 67 C 80.66 67 82 65.66 82 64 C 82 62.34 80.66 61 79 61 L 67 61 L 67 24.160156 L 92.039062 38.619141 C 92.019063 38.749141 92 38.87 92 39 L 92 89 C 92 90.66 93.34 92 95 92 C 96.66 92 98 90.66 98 89 L 98 42.060547 L 103.5 45.240234 C 104.94 46.070234 106.76961 45.580625 107.59961 44.140625 C 108.42961 42.700625 107.93 40.869062 106.5 40.039062 L 65.5 16.369141 C 65.035 16.099141 64.5175 15.964844 64 15.964844 z M 47 31 C 45.34 31 44 32.34 44 34 L 44 79.730469 L 27.75 42.789062 C 27.18 41.489063 25.780625 40.770547 24.390625 41.060547 C 22.990625 41.360547 22 42.58 22 44 L 22 84 C 22 85.66 23.34 87 25 87 C 26.66 87 28 85.66 28 84 L 28 58.269531 L 44.25 95.210938 C 44.74 96.310937 45.83 97 47 97 C 47.2 97 47.409141 96.979453 47.619141 96.939453 C 49.009141 96.639453 50 95.42 50 94 L 50 34 C 50 32.34 48.66 31 47 31 z"/></svg>