<svg fill="#44ce6f" xmlns="http://www.w3.org/2000/svg"  viewBox="0 0 128 128" width="50px" height="50px"><path d="M 37.972656 11.984375 A 22.42 22.42 0 0 0 35.650391 12.099609 A 26 26 0 0 0 28 62 L 28 72.759766 A 1 1 0 0 1 27.710938 73.460938 L 24.589844 76.589844 A 2 2 0 0 0 24.589844 79.410156 L 29.050781 83.880859 A 3 3 0 0 1 29.050781 88.119141 L 24.589844 92.589844 A 2 2 0 0 0 24.589844 95.410156 L 39.650391 110.48047 A 4.86 4.86 0 0 0 43.099609 111.91016 A 5 5 0 0 0 44.980469 111.53906 A 4.88 4.88 0 0 0 48 107 L 48 62 A 26 26 0 0 0 64 38 A 26 26 0 0 0 40.210938 12.099609 A 22.42 22.42 0 0 0 37.972656 11.984375 z M 37.927734 15.996094 A 19.31 19.31 0 0 1 39.800781 16.089844 A 22 22 0 0 1 45.330078 58.740234 A 2 2 0 0 0 44 60.630859 L 44 107 A 0.89 0.89 0 0 1 42.480469 107.63086 L 28.830078 94 L 31.880859 91 A 7 7 0 0 0 31.880859 81.099609 L 28.830078 78.099609 L 30.539062 76.390625 A 5 5 0 0 0 32 72.759766 L 32 60.630859 A 2 2 0 0 0 30.660156 58.740234 A 22 22 0 0 1 36 16.089844 A 19.31 19.31 0 0 1 37.927734 15.996094 z M 66 20 A 2 2 0 0 0 66 24 L 89.169922 24 L 108 42.830078 L 108 108 L 54 108 A 2 2 0 0 0 54 112 L 110 112 A 2 2 0 0 0 112 110 L 112 42 A 2 2 0 0 0 111.41016 40.589844 L 91.410156 20.589844 A 2 2 0 0 0 90 20 L 66 20 z M 37.964844 24.007812 A 2 2 0 0 0 36.589844 24.589844 L 24.589844 36.589844 A 2 2 0 0 0 24.589844 39.410156 L 36.589844 51.410156 A 2 2 0 0 0 39.410156 51.410156 L 51.410156 39.410156 A 2 2 0 0 0 51.410156 36.589844 L 39.410156 24.589844 A 2 2 0 0 0 37.964844 24.007812 z M 38 28.830078 L 47.169922 38 L 38 47.169922 L 28.830078 38 L 38 28.830078 z M 83.953125 60.117188 A 2.0024235 2.0024235 0 0 0 82.160156 61.330078 L 70.160156 89.210938 A 2 2 0 0 0 71.160156 91.839844 A 2 2 0 0 0 72 92 A 2 2 0 0 0 73.839844 90.789062 L 85.839844 62.910156 A 2.0024235 2.0024235 0 0 0 83.953125 60.117188 z M 64 60.119141 A 6.87 6.87 0 0 0 58.650391 62.769531 A 7.38 7.38 0 0 0 57.429688 69.230469 C 58.119687 72.070469 57.930391 73.230938 57.650391 73.710938 C 57.580391 73.830938 57.449766 74.060547 56.009766 74.060547 A 2 2 0 0 0 54.009766 76.060547 A 2 2 0 0 0 56.009766 78.060547 C 57.449766 78.060547 57.580391 78.290156 57.650391 78.410156 C 57.930391 78.890156 58.119687 80.050625 57.429688 82.890625 A 7.41 7.41 0 0 0 58.650391 89.359375 A 6.89 6.89 0 0 0 64 92 A 2 2 0 0 0 64 88 A 2.93 2.93 0 0 1 61.800781 86.890625 A 3.46 3.46 0 0 1 61.310547 83.890625 C 61.890547 81.550625 62.379844 78.589922 61.089844 76.419922 A 3.37 3.37 0 0 0 60.880859 76.109375 A 3.37 3.37 0 0 0 61.089844 75.800781 C 62.379844 73.630781 61.890547 70.670078 61.310547 68.330078 A 3.44 3.44 0 0 1 61.800781 65.330078 A 2.91 2.91 0 0 1 64 64.119141 A 2 2 0 0 0 64 60.119141 z M 92 60.119141 A 2 2 0 1 0 92 64.119141 A 2.91 2.91 0 0 1 94.199219 65.240234 A 3.44 3.44 0 0 1 94.689453 68.240234 C 94.109453 70.580234 93.620156 73.540938 94.910156 75.710938 A 3.37 3.37 0 0 0 95.119141 76.019531 A 3.37 3.37 0 0 0 94.910156 76.330078 C 93.620156 78.500078 94.109453 81.460781 94.689453 83.800781 A 3.46 3.46 0 0 1 94.199219 86.800781 A 2.93 2.93 0 0 1 92 88 A 2 2 0 0 0 92 92 A 6.89 6.89 0 0 0 97.349609 89.359375 A 7.41 7.41 0 0 0 98.570312 82.890625 C 97.880313 80.050625 98.069609 78.890156 98.349609 78.410156 C 98.419609 78.290156 98.550234 78.060547 99.990234 78.060547 A 2 2 0 0 0 101.99023 76.060547 A 2 2 0 0 0 99.990234 74.060547 C 98.550234 74.060547 98.419609 73.830937 98.349609 73.710938 C 98.069609 73.240938 97.880312 72.070469 98.570312 69.230469 A 7.38 7.38 0 0 0 97.349609 62.769531 A 6.87 6.87 0 0 0 92 60.119141 z"/></svg>