<svg xmlns="http://www.w3.org/2000/svg" xmlns:xlink="http://www.w3.org/1999/xlink" width="200" zoomAndPan="magnify" viewBox="0 0 150 149.999998" height="200" preserveAspectRatio="xMidYMid meet" version="1.0"><path fill="#70d6f9" d="M 65.28125 143.027344 L 63.933594 143.027344 L 63.933594 141.679688 C 63.933594 140.683594 63.113281 139.804688 62.058594 139.804688 C 61.003906 139.804688 60.183594 140.625 60.183594 141.679688 L 60.183594 143.027344 L 58.835938 143.027344 C 57.839844 143.027344 56.960938 143.847656 56.960938 144.902344 C 56.960938 145.957031 57.78125 146.777344 58.835938 146.777344 L 60.183594 146.777344 L 60.183594 148.125 C 60.183594 149.121094 61.003906 150 62.058594 150 C 63.113281 150 63.933594 149.179688 63.933594 148.125 L 63.933594 146.777344 L 65.28125 146.777344 C 66.277344 146.777344 67.15625 145.957031 67.15625 144.902344 C 67.15625 143.847656 66.335938 143.027344 65.28125 143.027344 Z M 65.28125 143.027344 " fill-opacity="1" fill-rule="nonzero"/><path fill="#f5c84c" d="M 43.660156 140.742188 C 42.558594 140.742188 41.667969 141.632812 41.667969 142.734375 C 41.667969 143.835938 42.558594 144.726562 43.660156 144.726562 C 44.757812 144.726562 45.652344 143.835938 45.652344 142.734375 C 45.652344 141.632812 44.757812 140.742188 43.660156 140.742188 Z M 43.660156 140.742188 " fill-opacity="1" fill-rule="nonzero"/><path fill="#f5c84c" d="M 109.285156 11.515625 C 106.648438 11.046875 104.597656 8.996094 104.070312 6.417969 C 104.070312 6.300781 103.835938 6.300781 103.835938 6.417969 C 103.308594 8.996094 101.257812 11.046875 98.621094 11.515625 C 98.503906 11.515625 98.503906 11.691406 98.621094 11.75 C 101.257812 12.21875 103.308594 14.269531 103.835938 16.847656 C 103.835938 16.964844 104.070312 16.964844 104.070312 16.847656 C 104.597656 14.269531 106.648438 12.21875 109.285156 11.75 C 109.402344 11.691406 109.402344 11.515625 109.285156 11.515625 Z M 109.285156 11.515625 " fill-opacity="1" fill-rule="nonzero"/><path fill="#fc657e" d="M 8.976562 90.824219 C 7.128906 90.496094 5.6875 89.058594 5.320312 87.25 C 5.320312 87.167969 5.152344 87.167969 5.152344 87.25 C 4.785156 89.058594 3.34375 90.496094 1.496094 90.824219 C 1.414062 90.824219 1.414062 90.949219 1.496094 90.992188 C 3.34375 91.320312 4.785156 92.757812 5.152344 94.566406 C 5.152344 94.648438 5.320312 94.648438 5.320312 94.566406 C 5.6875 92.757812 7.128906 91.320312 8.976562 90.992188 C 9.058594 90.949219 9.058594 90.824219 8.976562 90.824219 Z M 8.976562 90.824219 " fill-opacity="1" fill-rule="nonzero"/><path fill="#87d147" d="M 88.777344 0 C 87.675781 0 86.785156 0.890625 86.785156 1.992188 C 86.785156 3.09375 87.675781 3.984375 88.777344 3.984375 C 89.875 3.984375 90.769531 3.09375 90.769531 1.992188 C 90.769531 0.890625 89.875 0 88.777344 0 Z M 88.777344 0 " fill-opacity="1" fill-rule="nonzero"/><path fill="#edf4fc" d="M 86.828125 13.71875 L 77.804688 7.046875 C 76.136719 5.8125 73.859375 5.8125 72.191406 7.046875 L 63.171875 13.71875 C 58.929688 16.898438 56.4375 21.890625 56.4375 27.1875 L 56.4375 82.507812 L 93.5625 82.507812 L 93.5625 27.1875 C 93.5625 21.890625 91.066406 16.898438 86.828125 13.71875 Z M 86.828125 13.71875 " fill-opacity="1" fill-rule="nonzero"/><path fill="#fca265" d="M 105.207031 58.886719 L 93.5625 50.050781 L 93.5625 82.507812 L 106.40625 82.507812 C 108.113281 82.507812 109.496094 81.125 109.496094 79.417969 L 109.496094 67.523438 C 109.5 64.132812 107.910156 60.9375 105.207031 58.886719 Z M 105.207031 58.886719 " fill-opacity="1" fill-rule="nonzero"/><path fill="#fca265" d="M 44.792969 58.886719 C 42.089844 60.9375 40.503906 64.132812 40.503906 67.523438 L 40.503906 79.417969 C 40.503906 81.125 41.886719 82.507812 43.59375 82.507812 L 56.4375 82.507812 L 56.4375 50.050781 Z M 44.792969 58.886719 " fill-opacity="1" fill-rule="nonzero"/><path fill="#f5c84c" d="M 91.796875 104.527344 L 87.75 95.925781 C 87.429688 95.246094 87.757812 94.441406 88.460938 94.175781 L 91 93.222656 C 91.742188 92.945312 92.054688 92.070312 91.664062 91.382812 L 86.59375 82.507812 L 63.40625 82.507812 L 58.335938 91.382812 C 57.941406 92.070312 58.257812 92.945312 59 93.222656 L 61.535156 94.175781 C 62.238281 94.441406 62.566406 95.246094 62.25 95.925781 L 58.199219 104.527344 C 57.875 105.222656 58.226562 106.050781 58.957031 106.292969 L 62.773438 107.566406 C 63.21875 107.714844 63.550781 108.097656 63.632812 108.5625 L 65.375 118.449219 L 84.621094 118.449219 L 86.363281 108.5625 C 86.445312 108.097656 86.777344 107.714844 87.222656 107.566406 L 91.039062 106.292969 C 91.769531 106.050781 92.125 105.222656 91.796875 104.527344 Z M 91.796875 104.527344 " fill-opacity="1" fill-rule="nonzero"/><path fill="#edb311" d="M 68.929688 82.507812 L 71.828125 118.449219 L 78.171875 118.449219 L 81.070312 82.507812 Z M 68.929688 82.507812 " fill-opacity="1" fill-rule="nonzero"/><path fill="#70d6f9" d="M 75.410156 27.585938 C 75.949219 27.613281 76.476562 27.695312 77 27.832031 C 77.523438 27.964844 78.027344 28.148438 78.511719 28.382812 C 79 28.617188 79.457031 28.894531 79.890625 29.21875 C 80.320312 29.542969 80.714844 29.90625 81.078125 30.304688 C 81.4375 30.707031 81.753906 31.140625 82.027344 31.605469 C 82.300781 32.070312 82.527344 32.554688 82.707031 33.066406 C 82.886719 33.574219 83.015625 34.09375 83.089844 34.628906 C 83.164062 35.164062 83.1875 35.699219 83.160156 36.238281 C 83.128906 36.777344 83.046875 37.304688 82.914062 37.828125 C 82.78125 38.351562 82.597656 38.855469 82.363281 39.339844 C 82.128906 39.828125 81.851562 40.285156 81.527344 40.71875 C 81.203125 41.148438 80.839844 41.542969 80.4375 41.90625 C 80.035156 42.265625 79.601562 42.582031 79.140625 42.855469 C 78.675781 43.128906 78.1875 43.355469 77.679688 43.535156 C 77.171875 43.714844 76.648438 43.84375 76.117188 43.917969 C 75.582031 43.992188 75.046875 44.015625 74.507812 43.988281 C 73.96875 43.957031 73.4375 43.875 72.914062 43.742188 C 72.394531 43.609375 71.890625 43.425781 71.402344 43.191406 C 70.917969 42.957031 70.457031 42.679688 70.027344 42.355469 C 69.59375 42.03125 69.199219 41.667969 68.839844 41.265625 C 68.480469 40.863281 68.164062 40.429688 67.886719 39.96875 C 67.613281 39.503906 67.386719 39.015625 67.207031 38.507812 C 67.03125 38 66.902344 37.476562 66.828125 36.945312 C 66.75 36.410156 66.726562 35.875 66.757812 35.335938 C 66.785156 34.796875 66.867188 34.265625 67.003906 33.742188 C 67.136719 33.222656 67.320312 32.71875 67.554688 32.230469 C 67.789062 31.746094 68.066406 31.285156 68.390625 30.855469 C 68.714844 30.421875 69.078125 30.027344 69.476562 29.667969 C 69.878906 29.308594 70.3125 28.992188 70.777344 28.714844 C 71.242188 28.441406 71.726562 28.214844 72.238281 28.035156 C 72.746094 27.859375 73.265625 27.730469 73.800781 27.65625 C 74.335938 27.578125 74.871094 27.554688 75.410156 27.585938 Z M 75.410156 27.585938 " fill-opacity="1" fill-rule="nonzero"/><path fill="#fca265" d="M 75 50.96875 C 73.183594 50.96875 71.714844 52.441406 71.714844 54.253906 L 71.714844 82.507812 L 78.285156 82.507812 L 78.285156 54.253906 C 78.285156 52.441406 76.816406 50.96875 75 50.96875 Z M 75 50.96875 " fill-opacity="1" fill-rule="nonzero"/><path fill="#fc657e" d="M 86.828125 13.71875 L 77.804688 7.046875 C 76.136719 5.8125 73.859375 5.8125 72.191406 7.046875 L 63.171875 13.71875 C 62.125 14.503906 61.1875 15.398438 60.363281 16.382812 C 64.644531 18.941406 69.648438 20.414062 75 20.414062 C 80.347656 20.414062 85.351562 18.941406 89.636719 16.382812 C 88.8125 15.398438 87.875 14.503906 86.828125 13.71875 Z M 86.828125 13.71875 " fill-opacity="1" fill-rule="nonzero"/><path fill="#edf4fc" d="M 145.292969 118.449219 L 4.707031 118.449219 C 2.917969 118.449219 1.464844 119.898438 1.464844 121.691406 C 1.464844 127.988281 6.570312 133.097656 12.871094 133.097656 L 137.128906 133.097656 C 143.425781 133.097656 148.535156 127.988281 148.535156 121.691406 C 148.535156 119.898438 147.082031 118.449219 145.292969 118.449219 Z M 145.292969 118.449219 " fill-opacity="1" fill-rule="nonzero"/><path fill="#c7d7e5" d="M 49.179688 118.449219 L 49.179688 121.949219 C 49.179688 123.808594 50.6875 125.316406 52.546875 125.316406 L 97.453125 125.316406 C 99.3125 125.316406 100.820312 123.808594 100.820312 121.949219 L 100.820312 118.449219 Z M 49.179688 118.449219 " fill-opacity="1" fill-rule="nonzero"/><path fill="#5290db" d="M 129.109375 24.859375 L 93.394531 24.859375 C 93.5 25.628906 93.5625 26.402344 93.5625 27.1875 L 93.5625 50.050781 L 105.207031 58.886719 C 107.910156 60.933594 109.496094 64.132812 109.496094 67.523438 L 109.496094 79.417969 C 109.496094 81.125 108.113281 82.507812 106.40625 82.507812 L 86.59375 82.507812 L 91.664062 91.382812 C 92.058594 92.070312 91.742188 92.945312 91 93.222656 L 88.460938 94.175781 C 87.757812 94.441406 87.429688 95.246094 87.75 95.925781 L 91.796875 104.527344 C 92.125 105.222656 91.769531 106.050781 91.042969 106.292969 L 87.226562 107.566406 C 86.777344 107.714844 86.449219 108.097656 86.367188 108.5625 L 84.621094 118.449219 L 137.226562 118.449219 L 137.226562 32.976562 C 137.226562 28.492188 133.589844 24.859375 129.109375 24.859375 Z M 129.109375 24.859375 " fill-opacity="1" fill-rule="nonzero"/><path fill="#5290db" d="M 63.632812 108.5625 C 63.550781 108.097656 63.222656 107.714844 62.773438 107.566406 L 58.960938 106.292969 C 58.230469 106.050781 57.875 105.226562 58.203125 104.527344 L 62.25 95.929688 C 62.570312 95.25 62.242188 94.441406 61.539062 94.175781 L 59 93.226562 C 58.257812 92.949219 57.945312 92.070312 58.335938 91.382812 L 63.40625 82.507812 L 43.59375 82.507812 C 41.886719 82.507812 40.503906 81.125 40.503906 79.417969 L 40.503906 67.523438 C 40.503906 64.132812 42.089844 60.933594 44.792969 58.886719 L 56.4375 50.050781 L 56.4375 27.1875 C 56.4375 26.402344 56.5 25.625 56.605469 24.859375 L 20.890625 24.859375 C 16.410156 24.859375 12.773438 28.492188 12.773438 32.976562 L 12.773438 118.449219 L 65.378906 118.449219 Z M 63.632812 108.5625 " fill-opacity="1" fill-rule="nonzero"/><path fill="#fcdd86" d="M 129.070312 31.007812 L 93.5625 31.007812 L 93.5625 50.050781 L 105.210938 58.886719 C 107.910156 60.933594 109.5 64.132812 109.5 67.523438 L 109.5 79.417969 C 109.5 81.125 108.113281 82.507812 106.40625 82.507812 L 86.59375 82.507812 L 91.664062 91.382812 C 92.058594 92.070312 91.742188 92.945312 91 93.222656 L 88.460938 94.175781 C 87.757812 94.441406 87.429688 95.246094 87.75 95.925781 L 91.800781 104.527344 C 92.125 105.222656 91.773438 106.050781 91.042969 106.292969 L 87.226562 107.566406 C 86.777344 107.714844 86.449219 108.097656 86.367188 108.5625 L 84.621094 118.449219 L 131.078125 118.449219 L 131.078125 33.015625 C 131.078125 31.90625 130.179688 31.007812 129.070312 31.007812 Z M 129.070312 31.007812 " fill-opacity="1" fill-rule="nonzero"/><path fill="#fcdd86" d="M 63.632812 108.5625 C 63.550781 108.097656 63.222656 107.714844 62.773438 107.566406 L 58.960938 106.292969 C 58.230469 106.050781 57.875 105.226562 58.203125 104.527344 L 62.25 95.929688 C 62.570312 95.25 62.242188 94.441406 61.539062 94.175781 L 59 93.226562 C 58.257812 92.949219 57.945312 92.070312 58.335938 91.382812 L 63.40625 82.507812 L 43.59375 82.507812 C 41.886719 82.507812 40.503906 81.125 40.503906 79.417969 L 40.503906 67.523438 C 40.503906 64.132812 42.089844 60.933594 44.792969 58.886719 L 56.4375 50.050781 L 56.4375 31.007812 L 20.929688 31.007812 C 19.820312 31.007812 18.921875 31.90625 18.921875 33.015625 L 18.921875 118.449219 L 65.378906 118.449219 Z M 63.632812 108.5625 " fill-opacity="1" fill-rule="nonzero"/><path fill="#dae6f1" d="M 20.929688 31.007812 C 19.820312 31.007812 18.921875 31.90625 18.921875 33.015625 L 18.921875 39.304688 L 56.4375 39.304688 L 56.4375 31.007812 Z M 20.929688 31.007812 " fill-opacity="1" fill-rule="nonzero"/><path fill="#dae6f1" d="M 129.070312 31.007812 L 93.5625 31.007812 L 93.5625 39.304688 L 131.078125 39.304688 L 131.078125 33.015625 C 131.078125 31.90625 130.179688 31.007812 129.070312 31.007812 Z M 129.070312 31.007812 " fill-opacity="1" fill-rule="nonzero"/><path fill="#fc657e" d="M 20.929688 31.007812 C 19.820312 31.007812 18.921875 31.90625 18.921875 33.015625 L 18.921875 39.304688 L 30.910156 39.304688 L 30.910156 31.007812 Z M 20.929688 31.007812 " fill-opacity="1" fill-rule="nonzero"/><path fill="#000000" d="M 56.203125 23.394531 L 20.890625 23.394531 C 15.609375 23.394531 11.308594 27.691406 11.308594 32.976562 L 11.308594 117.8125 C 11.308594 118.621094 11.964844 119.277344 12.773438 119.277344 C 13.585938 119.277344 14.238281 118.621094 14.238281 117.8125 L 14.238281 32.976562 C 14.238281 29.308594 17.222656 26.324219 20.890625 26.324219 L 56.203125 26.324219 C 57.011719 26.324219 57.667969 25.667969 57.667969 24.859375 C 57.667969 24.050781 57.011719 23.394531 56.203125 23.394531 Z M 56.203125 23.394531 " fill-opacity="1" fill-rule="nonzero"/><path fill="#000000" d="M 129.109375 23.394531 L 93.839844 23.394531 C 93.03125 23.394531 92.375 24.050781 92.375 24.859375 C 92.375 25.667969 93.03125 26.324219 93.839844 26.324219 L 129.109375 26.324219 C 132.777344 26.324219 135.761719 29.308594 135.761719 32.976562 L 135.761719 117.835938 C 135.761719 118.644531 136.417969 119.300781 137.226562 119.300781 C 138.035156 119.300781 138.691406 118.644531 138.691406 117.835938 L 138.691406 32.976562 C 138.691406 27.691406 134.390625 23.394531 129.109375 23.394531 Z M 129.109375 23.394531 " fill-opacity="1" fill-rule="nonzero"/><path fill="#000000" d="M 56.203125 29.542969 L 20.929688 29.542969 C 19.015625 29.542969 17.457031 31.101562 17.457031 33.015625 L 17.457031 117.835938 C 17.457031 118.644531 18.113281 119.300781 18.921875 119.300781 C 19.730469 119.300781 20.386719 118.644531 20.386719 117.835938 L 20.386719 33.015625 C 20.386719 32.714844 20.628906 32.472656 20.929688 32.472656 L 56.203125 32.472656 C 57.015625 32.472656 57.667969 31.816406 57.667969 31.007812 C 57.667969 30.199219 57.011719 29.542969 56.203125 29.542969 Z M 56.203125 29.542969 " fill-opacity="1" fill-rule="nonzero"/><path fill="#000000" d="M 129.070312 29.542969 L 93.839844 29.542969 C 93.03125 29.542969 92.375 30.199219 92.375 31.007812 C 92.375 31.816406 93.03125 32.472656 93.839844 32.472656 L 129.070312 32.472656 C 129.371094 32.472656 129.613281 32.714844 129.613281 33.015625 L 129.613281 117.835938 C 129.613281 118.644531 130.269531 119.300781 131.078125 119.300781 C 131.886719 119.300781 132.542969 118.644531 132.542969 117.835938 L 132.542969 33.015625 C 132.542969 31.101562 130.984375 29.542969 129.070312 29.542969 Z M 129.070312 29.542969 " fill-opacity="1" fill-rule="nonzero"/><path fill="#000000" d="M 30.910156 30.121094 C 30.097656 30.121094 29.445312 30.773438 29.445312 31.585938 L 29.445312 38.753906 C 29.445312 39.5625 30.097656 40.21875 30.910156 40.21875 C 31.71875 40.21875 32.375 39.5625 32.375 38.753906 L 32.375 31.585938 C 32.375 30.773438 31.71875 30.121094 30.910156 30.121094 Z M 30.910156 30.121094 " fill-opacity="1" fill-rule="nonzero"/><path fill="#000000" d="M 130.664062 37.839844 L 93.839844 37.839844 C 93.03125 37.839844 92.375 38.496094 92.375 39.304688 C 92.375 40.113281 93.03125 40.769531 93.839844 40.769531 L 130.664062 40.769531 C 131.472656 40.769531 132.128906 40.113281 132.128906 39.304688 C 132.128906 38.496094 131.472656 37.839844 130.664062 37.839844 Z M 130.664062 37.839844 " fill-opacity="1" fill-rule="nonzero"/><path fill="#000000" d="M 56.203125 37.839844 L 19.921875 37.839844 C 19.113281 37.839844 18.457031 38.496094 18.457031 39.304688 C 18.457031 40.113281 19.113281 40.769531 19.921875 40.769531 L 56.203125 40.769531 C 57.011719 40.769531 57.667969 40.113281 57.667969 39.304688 C 57.667969 38.496094 57.011719 37.839844 56.203125 37.839844 Z M 56.203125 37.839844 " fill-opacity="1" fill-rule="nonzero"/><path fill="#000000" d="M 145.292969 116.984375 L 4.707031 116.984375 C 2.109375 116.984375 0 119.09375 0 121.6875 C 0 128.785156 5.773438 134.5625 12.871094 134.5625 L 137.128906 134.5625 C 144.226562 134.5625 150 128.789062 150 121.6875 C 150 119.09375 147.890625 116.984375 145.292969 116.984375 Z M 137.128906 131.632812 L 12.871094 131.632812 C 7.390625 131.632812 2.929688 127.171875 2.929688 121.691406 C 2.929688 120.710938 3.726562 119.914062 4.707031 119.914062 L 145.292969 119.914062 C 146.273438 119.914062 147.070312 120.710938 147.070312 121.691406 C 147.070312 127.171875 142.609375 131.632812 137.128906 131.632812 Z M 137.128906 131.632812 " fill-opacity="1" fill-rule="nonzero"/><path fill="#000000" d="M 100.820312 117.554688 C 100.011719 117.554688 99.355469 118.210938 99.355469 119.019531 L 99.355469 121.949219 C 99.355469 123 98.503906 123.851562 97.453125 123.851562 L 52.546875 123.851562 C 51.496094 123.851562 50.644531 123 50.644531 121.949219 L 50.644531 119.09375 C 50.644531 118.285156 49.988281 117.628906 49.179688 117.628906 C 48.371094 117.628906 47.714844 118.285156 47.714844 119.09375 L 47.714844 121.949219 C 47.714844 124.613281 49.882812 126.78125 52.546875 126.78125 L 97.453125 126.78125 C 100.117188 126.78125 102.285156 124.613281 102.285156 121.949219 L 102.285156 119.019531 C 102.285156 118.210938 101.628906 117.554688 100.820312 117.554688 Z M 100.820312 117.554688 " fill-opacity="1" fill-rule="nonzero"/><path fill="#000000" d="M 87.707031 12.546875 C 87.703125 12.546875 87.703125 12.542969 87.699219 12.542969 L 78.679688 5.871094 C 76.476562 4.242188 73.523438 4.242188 71.320312 5.871094 L 62.292969 12.546875 C 57.707031 15.984375 54.972656 21.457031 54.972656 27.1875 L 54.972656 82.507812 C 54.972656 83.316406 55.628906 83.972656 56.4375 83.972656 L 93.5625 83.972656 C 94.371094 83.972656 95.027344 83.316406 95.027344 82.507812 L 95.027344 27.1875 C 95.027344 21.460938 92.292969 15.984375 87.707031 12.546875 Z M 92.097656 81.042969 L 57.902344 81.042969 L 57.902344 27.1875 C 57.902344 22.375 60.199219 17.777344 64.042969 14.894531 L 73.0625 8.222656 C 74.222656 7.367188 75.777344 7.367188 76.9375 8.222656 L 85.953125 14.894531 C 89.800781 17.78125 92.097656 22.375 92.097656 27.1875 Z M 92.097656 81.042969 " fill-opacity="1" fill-rule="nonzero"/><path fill="#000000" d="M 106.09375 57.71875 L 94.796875 49.148438 C 94.152344 48.660156 93.234375 48.785156 92.746094 49.429688 C 92.253906 50.074219 92.382812 50.992188 93.027344 51.480469 L 104.324219 60.054688 C 106.644531 61.816406 108.03125 64.605469 108.03125 67.523438 L 108.03125 79.417969 C 108.03125 80.316406 107.304688 81.042969 106.40625 81.042969 L 93.5625 81.042969 C 92.753906 81.042969 92.097656 81.699219 92.097656 82.507812 C 92.097656 83.320312 92.753906 83.972656 93.5625 83.972656 L 106.40625 83.972656 C 108.917969 83.972656 110.960938 81.929688 110.960938 79.417969 L 110.960938 67.523438 C 110.960938 63.695312 109.140625 60.03125 106.09375 57.71875 Z M 106.09375 57.71875 " fill-opacity="1" fill-rule="nonzero"/><path fill="#000000" d="M 56.4375 81.042969 L 43.59375 81.042969 C 42.695312 81.042969 41.96875 80.316406 41.96875 79.417969 L 41.96875 67.523438 C 41.96875 64.605469 43.355469 61.816406 45.675781 60.050781 L 57.199219 51.3125 C 57.84375 50.824219 57.96875 49.902344 57.480469 49.257812 C 56.992188 48.613281 56.074219 48.488281 55.429688 48.976562 L 43.90625 57.71875 C 40.859375 60.03125 39.035156 63.695312 39.035156 67.523438 L 39.035156 79.417969 C 39.035156 81.929688 41.082031 83.972656 43.59375 83.972656 L 56.4375 83.972656 C 57.246094 83.972656 57.902344 83.320312 57.902344 82.507812 C 57.902344 81.699219 57.246094 81.042969 56.4375 81.042969 Z M 56.4375 81.042969 " fill-opacity="1" fill-rule="nonzero"/><path fill="#000000" d="M 93.121094 103.902344 L 89.160156 95.480469 L 91.511719 94.597656 C 92.269531 94.3125 92.859375 93.714844 93.136719 92.957031 C 93.410156 92.195312 93.335938 91.359375 92.9375 90.65625 L 88.128906 82.242188 C 87.726562 81.539062 86.832031 81.292969 86.128906 81.695312 C 85.425781 82.097656 85.183594 82.992188 85.582031 83.695312 L 90.289062 91.925781 L 87.945312 92.804688 C 87.230469 93.074219 86.652344 93.636719 86.367188 94.34375 C 86.078125 95.054688 86.097656 95.859375 86.425781 96.550781 L 90.386719 104.96875 L 86.765625 106.175781 C 85.804688 106.496094 85.101562 107.3125 84.925781 108.308594 L 83.28125 117.625 C 83.140625 118.417969 83.671875 119.179688 84.46875 119.320312 C 84.554688 119.335938 84.640625 119.34375 84.722656 119.34375 C 85.421875 119.34375 86.039062 118.84375 86.164062 118.132812 L 87.789062 108.921875 L 91.503906 107.683594 C 92.25 107.4375 92.851562 106.878906 93.164062 106.160156 C 93.472656 105.4375 93.457031 104.613281 93.121094 103.902344 Z M 93.121094 103.902344 " fill-opacity="1" fill-rule="nonzero"/><path fill="#000000" d="M 66.71875 117.621094 L 65.074219 108.308594 C 64.902344 107.3125 64.195312 106.496094 63.238281 106.175781 L 59.613281 104.96875 L 63.574219 96.550781 C 63.902344 95.855469 63.921875 95.054688 63.632812 94.34375 C 63.347656 93.632812 62.769531 93.074219 62.050781 92.804688 L 59.710938 91.925781 L 64.476562 83.589844 C 64.875 82.886719 64.632812 81.992188 63.929688 81.589844 C 63.226562 81.1875 62.332031 81.433594 61.933594 82.136719 L 57.0625 90.65625 C 56.660156 91.359375 56.589844 92.195312 56.863281 92.957031 C 57.140625 93.714844 57.730469 94.3125 58.484375 94.59375 L 60.839844 95.480469 L 56.875 103.902344 C 56.542969 104.613281 56.527344 105.4375 56.835938 106.160156 C 57.148438 106.878906 57.75 107.4375 58.496094 107.683594 L 62.210938 108.921875 L 63.835938 118.128906 C 63.960938 118.839844 64.578125 119.339844 65.273438 119.339844 C 65.359375 119.339844 65.445312 119.332031 65.53125 119.316406 C 66.328125 119.175781 66.859375 118.417969 66.71875 117.621094 Z M 66.71875 117.621094 " fill-opacity="1" fill-rule="nonzero"/><path fill="#000000" d="M 81.136719 81.667969 C 80.324219 81.613281 79.625 82.207031 79.558594 83.011719 L 76.757812 117.761719 C 76.695312 118.566406 77.292969 119.273438 78.101562 119.339844 C 78.140625 119.34375 78.179688 119.34375 78.21875 119.34375 C 78.976562 119.34375 79.617188 118.761719 79.679688 117.996094 L 82.480469 83.246094 C 82.546875 82.441406 81.945312 81.734375 81.136719 81.667969 Z M 81.136719 81.667969 " fill-opacity="1" fill-rule="nonzero"/><path fill="#000000" d="M 70.433594 82.941406 C 70.371094 82.136719 69.667969 81.542969 68.855469 81.601562 C 68.050781 81.664062 67.449219 82.371094 67.515625 83.179688 L 70.320312 117.996094 C 70.382812 118.761719 71.023438 119.34375 71.78125 119.34375 C 71.820312 119.34375 71.859375 119.339844 71.898438 119.339844 C 72.707031 119.273438 73.308594 118.566406 73.242188 117.761719 Z M 70.433594 82.941406 " fill-opacity="1" fill-rule="nonzero"/><path fill="#000000" d="M 75 26.175781 C 69.664062 26.175781 65.320312 30.519531 65.320312 35.855469 C 65.320312 41.191406 69.664062 45.535156 75 45.535156 C 80.335938 45.535156 84.679688 41.191406 84.679688 35.855469 C 84.679688 30.519531 80.335938 26.175781 75 26.175781 Z M 75 42.605469 C 71.277344 42.605469 68.25 39.578125 68.25 35.855469 C 68.25 32.132812 71.277344 29.105469 75 29.105469 C 78.722656 29.105469 81.75 32.132812 81.75 35.855469 C 81.75 39.578125 78.722656 42.605469 75 42.605469 Z M 75 42.605469 " fill-opacity="1" fill-rule="nonzero"/><path fill="#000000" d="M 75 49.503906 C 72.378906 49.503906 70.25 51.632812 70.25 54.253906 L 70.25 82.007812 C 70.25 82.816406 70.90625 83.472656 71.714844 83.472656 C 72.523438 83.472656 73.179688 82.816406 73.179688 82.007812 L 73.179688 54.253906 C 73.179688 53.25 73.996094 52.433594 75 52.433594 C 76.003906 52.433594 76.820312 53.25 76.820312 54.253906 L 76.820312 82.066406 C 76.820312 82.878906 77.476562 83.53125 78.285156 83.53125 C 79.09375 83.53125 79.75 82.878906 79.75 82.066406 L 79.75 54.253906 C 79.75 51.632812 77.617188 49.503906 75 49.503906 Z M 75 49.503906 " fill-opacity="1" fill-rule="nonzero"/><path fill="#000000" d="M 90.578125 15.835938 C 90.175781 15.136719 89.277344 14.898438 88.578125 15.304688 C 84.464844 17.6875 79.769531 18.949219 75 18.949219 C 70.210938 18.949219 65.503906 17.679688 61.382812 15.28125 C 60.683594 14.878906 59.789062 15.113281 59.382812 15.8125 C 58.972656 16.511719 59.210938 17.410156 59.910156 17.816406 C 64.476562 20.472656 69.695312 21.878906 75 21.878906 C 80.285156 21.878906 85.488281 20.480469 90.046875 17.839844 C 90.746094 17.433594 90.984375 16.539062 90.578125 15.835938 Z M 90.578125 15.835938 " fill-opacity="1" fill-rule="nonzero"/></svg>