<svg xmlns="http://www.w3.org/2000/svg" width="100" height="100" viewBox="0 0 32 32">
  <g id="Blockchain" transform="translate(18761.999 8759)">
    <rect id="Rectangle_1706" data-name="Rectangle 1706" width="100" height="100" transform="translate(-18762 -8759)" fill="none"/>
    <g id="Blockchain-2" data-name="Blockchain" transform="translate(-18766.109 -8759.807)">
      <g id="Group_5313" data-name="Group 5313" transform="translate(5.751 0.806)">
        <path id="Path_6154" data-name="Path 6154" d="M34.468,12.707V9.013l-3.6-2.343L27.594,8.8,23.672,6.474V3.149L20.071.806l-3.6,2.343V6.48L12.7,8.851,9.349,6.67l-3.6,2.343v3.694l3.265,2.129v3.437L5.751,20.4v3.694l3.6,2.346,3.259-2.123,3.867,2.8V30.46l3.6,2.346,3.6-2.346V27.13l4.107-2.592-.119-.189,3.207,2.092,3.6-2.346V20.4L31.2,18.274V14.837Zm-.664-.36-2.6,1.7V11.5L33.8,9.8v2.546ZM27.934,9.8l2.6,1.694v2.548l-2.6-1.7ZM20.072,1.6l2.656,1.728L20.072,5.056,17.418,3.327Zm2.936,2.338V6.484l-2.6,1.7V5.632Zm-5.87,0,2.6,1.694V8.18l-2.6-1.7ZM12.949,9.479,16.8,7.058l3.268,2.131,3.277-2.135L27.27,9.382v2.94l-3.909,1.957-3.29-2.141-3.285,2.14-3.837-1.954Zm4.469,5.179,2.654-1.729,2.656,1.729-2.656,1.729Zm2.321,2.3v2.548l-2.6-1.7V15.269Zm.664,0,2.6-1.695v2.546l-2.6,1.7ZM9.349,7.463,12,9.191,9.349,10.92,6.7,9.191ZM12.285,9.8v2.546l-2.6,1.7V11.5Zm-5.87,2.546V9.8l2.6,1.694v2.548Zm2.6,13.084-2.6-1.7V21.189l2.6,1.695ZM6.7,20.579,9.349,18.85l2.656,1.728L9.349,22.307Zm5.59,3.156-2.6,1.7V22.883l2.6-1.695Zm.664.01V20.4L9.681,18.274V14.837l2.957-1.926,3.837,1.954v3.31L19.74,20.3V24.64l-2.923,1.9ZM19.74,31.8l-2.6-1.7V27.555l2.6,1.694Zm-2.321-4.853,2.654-1.729,2.656,1.729-2.656,1.729Zm5.59,3.156-2.6,1.7V29.249l2.6-1.695Zm4.262-9.7v3.673l-3.927,2.478L20.4,24.64V20.3l3.268-2.129V14.866l3.909-1.957,2.955,1.927v3.437Zm3.265,5.03-2.6-1.7V21.189l2.6,1.695Zm3.268-1.7-2.6,1.7V22.883l2.6-1.695v2.546Zm-.28-3.156-2.656,1.729-2.654-1.729,2.654-1.728ZM30.868,10.92,28.214,9.191l2.654-1.728,2.656,1.728Z" transform="translate(-5.751 -0.806)"/>
      </g>
    </g>
  </g>
</svg>
