<svg xmlns="http://www.w3.org/2000/svg" viewBox="0 0 200 200"><defs><style>.cls-1{fill:none;}</style></defs><g id="Layer_2" data-name="Layer 2"><g id="Layer_1-2" data-name="Layer 1"><rect class="cls-1" width="200" height="200"/><path d="M56.1,41.21c0-1.14,0-2.29,0-3.44a2.26,2.26,0,0,1,3.27-2.14c2.07,1,4.17,1.89,6.25,2.86a1.29,1.29,0,0,0,1.12,0,2,2,0,0,0,1.36-2c.25-2,.62-3.92.94-5.88a3,3,0,0,1,.11-.52,2.21,2.21,0,0,1,3.23-1.36,5.31,5.31,0,0,1,.63.42c1.74,1.25,3.49,2.49,5.21,3.76a1.33,1.33,0,0,0,1.19.21,2,2,0,0,0,1.67-1.59c.65-2,1.41-3.88,2.14-5.8a2.21,2.21,0,0,1,2.44-1.55,2.51,2.51,0,0,1,1.54.91c1.47,1.59,3,3.16,4.42,4.77a1.54,1.54,0,0,0,1.38.53,1.85,1.85,0,0,0,1.7-1.11c1.07-1.82,2.2-3.61,3.33-5.4a2.21,2.21,0,0,1,2.61-1.07A2.39,2.39,0,0,1,102,24l3.33,5.39a3.14,3.14,0,0,1,.28.46c.17.37.47.42.84.52a2.07,2.07,0,0,0,2.29-.87c1.31-1.52,2.72-3,4.09-4.43a2.41,2.41,0,0,1,1.5-.85,2.18,2.18,0,0,1,2.39,1.49c.56,1.45,1.09,2.91,1.64,4.36.28.77.58,1.52.84,2.29a.83.83,0,0,0,.57.55c1.37.47,1.37.47,2.55-.38,1.63-1.17,3.27-2.34,4.89-3.53a2.29,2.29,0,0,1,2-.45,2.19,2.19,0,0,1,1.66,1.89c.31,1.88.62,3.77.92,5.65a2.56,2.56,0,0,1,.09.53c-.1,1.24.8,1.64,1.7,2a1.05,1.05,0,0,0,.7-.1L139.72,36c.3-.14.61-.26.9-.41a2.25,2.25,0,0,1,3.26,2.16c-.09,2-.14,4.07-.23,6.11-.06,1.41-.07,1.4,1,2.29a.94.94,0,0,0,1,.22q3.18-.79,6.39-1.51a4,4,0,0,1,1.5-.1,2.1,2.1,0,0,1,1.73,2.2,3.89,3.89,0,0,1-.13.82c-.49,2.13-1,4.27-1.51,6.39a1.39,1.39,0,0,0,.29,1.25,1.89,1.89,0,0,0,1.92.87c2.06-.12,4.12-.15,6.18-.21a3.54,3.54,0,0,1,1.13.12,2.19,2.19,0,0,1,1.3,2.93c-.4,1-.87,1.95-1.31,2.93-.54,1.18-1.07,2.37-1.63,3.54a1.19,1.19,0,0,0,0,1.07,2.12,2.12,0,0,0,2,1.41c2,.22,3.92.6,5.88.93a2.26,2.26,0,0,1,2.11,1.89A2.29,2.29,0,0,1,171,72.8l-3.52,4.89c-.81,1.12-.79,1.11-.41,2.4a1,1,0,0,0,.75.76c2,.72,4,1.47,5.94,2.21.21.08.43.15.64.24a2.2,2.2,0,0,1,.71,3.7c-1.2,1.18-2.45,2.3-3.68,3.45-.5.47-1,1-1.51,1.4a.9.9,0,0,0-.34.8c.08,1.4.07,1.4,1.27,2.15l5.26,3.25a2.21,2.21,0,0,1,.08,3.89c-1.64,1.07-3.32,2.08-5,3.11a7,7,0,0,1-.78.47,1.26,1.26,0,0,0-.74,1.13,1.84,1.84,0,0,0,.67,1.92c1.54,1.33,3,2.81,4.51,4.13a2.36,2.36,0,0,1-.85,4.23c-2.07.63-4.06,1.49-6.09,2.23a1.33,1.33,0,0,0-.84.87,2,2,0,0,0,.39,2.28c1.19,1.52,2.28,3.12,3.41,4.7l.27.37a2.21,2.21,0,0,1-1.5,3.55c-2.13.37-4.27.7-6.4,1a2.5,2.5,0,0,1-.38.06,1.18,1.18,0,0,0-1,.69,2,2,0,0,0-.08,2.24c.91,1.82,1.73,3.68,2.55,5.55a3.1,3.1,0,0,1,.29,1.39,2.13,2.13,0,0,1-2.29,2q-3.44-.07-6.87-.24a1.41,1.41,0,0,0-1.23.54,1.9,1.9,0,0,0-.48,2c.53,2,1,4,1.41,5.94a3.79,3.79,0,0,1,.09,1.21,2.07,2.07,0,0,1-1.94,1.83,3.88,3.88,0,0,1-1.13-.11c-2.16-.49-4.32-1-6.47-1.52a1.22,1.22,0,0,0-1,.23,2,2,0,0,0-1,2.17c.17,2,.16,4,.22,6a3.62,3.62,0,0,1-.06,1,2.21,2.21,0,0,1-3.08,1.47c-1-.4-1.91-.86-2.86-1.29-1.15-.53-2.31-1-3.46-1.6a1.27,1.27,0,0,0-1.14,0,2.09,2.09,0,0,0-1.38,1.94c-.26,2-.64,4.07-1,6.1a2.21,2.21,0,0,1-3.64,1.49c-1.84-1.29-3.65-2.61-5.46-3.94a1.36,1.36,0,0,0-1.25-.23,2,2,0,0,0-1.64,1.53c-.62,1.88-1.37,3.72-2.06,5.58a4.51,4.51,0,0,1-.26.64,2.22,2.22,0,0,1-3.39.7,6.69,6.69,0,0,1-.59-.6c-1.46-1.56-2.93-3.12-4.37-4.7a1.13,1.13,0,0,0-1.05-.43c-1.28.13-1.28.11-2,1.2-1.07,1.74-2.15,3.46-3.21,5.2a2.32,2.32,0,0,1-1.66,1.23,2.18,2.18,0,0,1-2.33-1.1c-.79-1.25-1.56-2.51-2.34-3.76-.46-.74-.92-1.47-1.36-2.22a.86.86,0,0,0-.73-.45c-1.4-.17-1.4-.18-2.34.84L87.11,175a2.22,2.22,0,0,1-2.84.54,2.38,2.38,0,0,1-1.07-1.34q-1-2.68-2-5.37a1.33,1.33,0,0,1-.1-.28,2,2,0,0,0-1.82-1.73,1.14,1.14,0,0,0-1,.2c-1.75,1.28-3.51,2.53-5.27,3.8-.18.13-.36.27-.56.39a2.19,2.19,0,0,1-3.34-1.43c-.31-1.5-.51-3-.76-4.52-.15-.9-.31-1.81-.44-2.71a.75.75,0,0,0-.42-.59c-1.25-.74-1.25-.75-2.56-.15l-5.14,2.35c-.25.11-.5.24-.77.33a2.2,2.2,0,0,1-2.93-2.08c0-1.12,0-2.24.08-3.36,0-1.28.07-2.55.14-3.82a1,1,0,0,0-.46-1c-1-.8-1-.81-2.24-.51l-5.94,1.4a2.24,2.24,0,0,1-2.95-1.85,3.77,3.77,0,0,1,.15-1.28c.48-2.11,1-4.21,1.48-6.31a1.23,1.23,0,0,0-.24-1.11,2,2,0,0,0-2.11-.94c-2.1.15-4.22.18-6.34.22A2.2,2.2,0,0,1,35.39,142a2.54,2.54,0,0,1,.29-1.48c.91-2,1.8-4,2.75-6a1.47,1.47,0,0,0,0-1.41A1.88,1.88,0,0,0,36.72,132c-2.09-.27-4.16-.71-6.26-1a2.28,2.28,0,0,1-1.5-3.71c1.34-1.79,2.62-3.64,3.94-5.44a1.3,1.3,0,0,0,.22-1.19,2,2,0,0,0-1.58-1.69c-1.93-.63-3.83-1.39-5.73-2.11a2.25,2.25,0,0,1-1.64-2.38,2.37,2.37,0,0,1,.85-1.57l4.81-4.48c.11-.1.22-.22.34-.31a.61.61,0,0,0,.24-.67s0,0,0-.08A2.16,2.16,0,0,0,29,105.14c-1.75-1-3.43-2.09-5.14-3.15a2.29,2.29,0,0,1-1.1-1.41,2.21,2.21,0,0,1,1.1-2.53l5.52-3.43c.13-.08.25-.17.39-.24.38-.16.42-.48.52-.84a2.05,2.05,0,0,0-.88-2.28c-1.52-1.32-3-2.73-4.43-4.1a2.35,2.35,0,0,1-.84-1.5,2.2,2.2,0,0,1,1.49-2.39c1.28-.5,2.58-1,3.87-1.44.9-.34,1.8-.7,2.71-1a.94.94,0,0,0,.64-.68c.41-1.34.42-1.33-.4-2.47-1.16-1.61-2.33-3.22-3.47-4.85a3,3,0,0,1-.54-1.16,2.12,2.12,0,0,1,1.77-2.52c1.8-.34,3.61-.61,5.42-.91.58-.09,1.16-.18,1.73-.29.16,0,.39-.09.46-.2a9.17,9.17,0,0,0,.76-1.41c.07-.17,0-.44-.14-.64-.89-2-1.81-4-2.71-6a5,5,0,0,1-.27-.63,2.17,2.17,0,0,1,2-2.95c1.25,0,2.5,0,3.75.08s2.34.07,3.51.13a1.14,1.14,0,0,0,.91-.42,2,2,0,0,0,.54-2.31c-.52-1.86-.92-3.76-1.35-5.65a4.08,4.08,0,0,1-.16-1.2,2.2,2.2,0,0,1,2.72-2q3.31.74,6.61,1.57a1.31,1.31,0,0,0,1.5-.37,1.69,1.69,0,0,1,.41-.34.81.81,0,0,0,.37-.77c0-1.22-.07-2.45-.11-3.67ZM156.16,103.8a59.67,59.67,0,0,0-.1-9.83l-.68-.33-3.14-1.4-6.49-2.88a4.18,4.18,0,0,1-2.55-3.21,4.42,4.42,0,0,1,.43-2.67l4.62-10.4.66-1.52a52.82,52.82,0,0,0-4.85-7.18,56.36,56.36,0,0,0-32.95-20.29,1.5,1.5,0,0,0-1.54.44c-2.35,2.3-4.74,4.56-7.11,6.83a4.3,4.3,0,0,1-2.93,1.29,4.23,4.23,0,0,1-3.26-1.41q-2.82-3-5.65-5.92c-.44-.46-.91-.89-1.36-1.33-.62.12-1.25.23-1.87.37a56.52,56.52,0,0,0-29,16.72c-.19.19-.35.41-.63.74h59.41c.44,0,.87,0,1.3,0a25.58,25.58,0,0,1,9.17,2.71,20.84,20.84,0,0,1,8.94,8.3,14.7,14.7,0,0,1,1.64,11.2,16,16,0,0,1-3.69,6.61,33,33,0,0,1-6.69,5.66l-.71.5.64.54c.74.62,1.5,1.22,2.23,1.86a16,16,0,0,1,4.74,7,35.83,35.83,0,0,1,1.49,5.76,2.63,2.63,0,0,0,1,1.74,8.47,8.47,0,0,0,1.62,1,8.34,8.34,0,0,0,5.9.3,5.83,5.83,0,0,0,4.34-4.29,17,17,0,0,0,.44-2.93c.07-1,0-2,0-3,0-.79.23-1,1-1h5.6Zm-10.67,29.31-.36,0c-7.69,0-15.39,0-23.08,0a5.67,5.67,0,0,1-3.3-1,12.21,12.21,0,0,1-1.37-1.1,14.64,14.64,0,0,1-4.2-7.06c-.67-2.8-1.24-5.62-1.85-8.43a20.27,20.27,0,0,0-1.5-5.11,8.74,8.74,0,0,0-8.21-5.13c-4.56,0-9.12,0-13.68,0-.22,0-.45,0-.7,0v10.33h13.17c1.14,0,1.17,0,1.17,1.15v15.75a.53.53,0,0,1-.55.59c-.33,0-.67,0-1,0H55.55l-1,0c.2.28.3.45.42.6,1.32,1.56,2.65,3.1,4,4.67a1,1,0,0,0,1.13.35c2.86-.64,5.72-1.23,8.58-1.86a4.26,4.26,0,0,1,5.27,3.37c.65,3.29,1.41,6.57,2.09,9.86a1.27,1.27,0,0,0,.8,1,56.49,56.49,0,0,0,22,4.94,55.77,55.77,0,0,0,11.17-.89,56.42,56.42,0,0,0,12.83-3.9.93.93,0,0,0,.62-.77c.4-1.94.83-3.88,1.24-5.82.31-1.45.6-2.9.93-4.33a4,4,0,0,1,3.33-3.27,7.06,7.06,0,0,1,2.42.11c1.53.27,3,.64,4.55,1l4.48.94A55.7,55.7,0,0,0,145.49,133.11ZM45.51,115H61.57V79.07a58.51,58.51,0,0,0-7.88.06c.1.23.19.47.29.7.54,1.23,1.09,2.46,1.64,3.7a4.13,4.13,0,0,1,.28,2.68,4.2,4.2,0,0,1-2.58,3c-3,1.34-6,2.7-9.07,4a.91.91,0,0,0-.65.89c0,.87-.12,1.73-.16,2.59A56.08,56.08,0,0,0,45.51,115ZM87.07,90h.87c5.45,0,10.91,0,16.36,0a21.74,21.74,0,0,0,3.12-.24,8.6,8.6,0,0,0,3.88-1.49A4,4,0,0,0,113,84.67a4.35,4.35,0,0,0-1.64-3.16,8.51,8.51,0,0,0-5.46-2.1c-6.11-.06-12.23,0-18.34,0-.17,0-.34,0-.53.06ZM65.6,151.89a4.6,4.6,0,0,0,.06-9.19A4.63,4.63,0,0,0,61,147.32,4.57,4.57,0,0,0,65.6,151.89ZM44.83,87.21a4.59,4.59,0,1,0-4.59-4.61A4.58,4.58,0,0,0,44.83,87.21ZM133.7,143a4.58,4.58,0,0,0-4.58,4.56,4.59,4.59,0,1,0,9.18,0A4.55,4.55,0,0,0,133.7,143ZM99.54,45.62A4.59,4.59,0,1,0,95,41.09,4.59,4.59,0,0,0,99.54,45.62Zm59.35,37.24a4.59,4.59,0,1,0-9.17,0,4.59,4.59,0,1,0,9.17,0Z"/></g></g></svg>