<svg xmlns="http://www.w3.org/2000/svg" viewBox="0 0 64 64"><path fill="#00bebd" d="M30,0V64a7,7,0,0,1-7-7.54,9,9,0,0,1-12.34-12.7,11,11,0,0,1,.24-21.56A10,10,0,0,1,20,8c2.21,0,2,.46,2,0A8,8,0,0,1,30,0Z"/><path fill="#d9d9d9" d="M36 0a3 3 0 0 0-1 5.82V10a1 1 0 0 0 2 0V5.82A3 3 0 0 0 36 0zm0 4a1 1 0 0 1 0-2A1 1 0 0 1 36 4zM46 0a3 3 0 0 0-1 5.82V10a1 1 0 0 0 2 0V5.82A3 3 0 0 0 46 0zm0 4a1 1 0 0 1 0-2A1 1 0 0 1 46 4zM37 58.18V54a1 1 0 0 0-2 0v4.18a3 3 0 1 0 2 0zM36 62a1 1 0 0 1 0-2A1 1 0 0 1 36 62zM47 58.18V54a1 1 0 0 0-2 0v4.18a3 3 0 1 0 2 0zM46 62a1 1 0 0 1 0-2A1 1 0 0 1 46 62zM52 18h4.18a3 3 0 1 0 0-2H52A1 1 0 0 0 52 18zm7-2a1 1 0 0 1 0 2A1 1 0 0 1 59 16zM56.18 26H52a1 1 0 0 0 0 2h4.18a3 3 0 1 0 0-2zM59 28a1 1 0 0 1 0-2A1 1 0 0 1 59 28zM56.18 36H52a1 1 0 0 0 0 2h4.18a3 3 0 1 0 0-2zM59 38a1 1 0 0 1 0-2A1 1 0 0 1 59 38zM56.18 46H52a1 1 0 0 0 0 2h4.18a3 3 0 1 0 0-2zM59 48a1 1 0 0 1 0-2A1 1 0 0 1 59 48z"/><path fill="#ffac00" d="M30,10H48a4,4,0,0,1,4,4V50a4,4,0,0,1-4,4H30a0,0,0,0,1,0,0V10A0,0,0,0,1,30,10Z"/><path fill="#f3f3f3" d="M30,17H45a1,1,0,0,1,1,1V46a1,1,0,0,1-1,1H30a0,0,0,0,1,0,0V17A0,0,0,0,1,30,17Z"/><path fill="#00aaa8" d="M24.82 15a3 3 0 1 0 0 2H30V15zM22 17a1 1 0 0 1 0-2A1 1 0 0 1 22 17zM26 26a3 3 0 0 0-3 3v3a1 1 0 0 1-1 1H17.82a3 3 0 1 0 0 2H22a3 3 0 0 0 3-3V29a1 1 0 0 1 1-1h4V26zM15 35a1 1 0 0 1 0-2A1 1 0 0 1 15 35zM25 50a1 1 0 0 1-1-1V46.82a3 3 0 1 0-2 0V49a3 3 0 0 0 3 3h5V50zm-2-5a1 1 0 0 1 0-2A1 1 0 0 1 23 45z"/></svg>