<svg xmlns="http://www.w3.org/2000/svg" enable-background="new 0 0 50 50" viewBox="0 0 50 50"><path fill="#FED932" d="M8.29995,16.05027c-3.15249,0-5.71749-2.565-5.71749-5.71749s2.565-5.71749,5.71749-5.71749
			s5.71749,2.565,5.71749,5.71749S11.45244,16.05027,8.29995,16.05027z M8.29995,5.09503
			c-2.88826,0-5.23775,2.34949-5.23775,5.23775s2.34949,5.23775,5.23775,5.23775s5.23775-2.34949,5.23775-5.23775
			S11.18821,5.09503,8.29995,5.09503z"/><circle cx="8.3" cy="10.333" r="3.798" fill="#FED932"/><path fill="#FFF" d="M8.29995,10.09291c-0.32045,0-0.5814-0.26095-0.5814-0.5814c0-0.32045,0.26095-0.5814,0.5814-0.5814
		c0.32045,0,0.5814,0.26095,0.5814,0.5814h0.47974c0-0.50012-0.35494-0.90103-0.82127-1.01259V8.24424H8.06008v0.25468
		C7.59375,8.61049,7.23881,9.0114,7.23881,9.51151c0,0.58515,0.47599,1.06114,1.06114,1.06114
		c0.32045,0,0.5814,0.26095,0.5814,0.58187c0,0.32045-0.26095,0.5814-0.5814,0.5814c-0.32045,0-0.5814-0.26095-0.5814-0.5814
		H7.23881c0,0.50012,0.35494,0.90103,0.82127,1.01259v0.25469h0.47974v-0.25469c0.46633-0.11156,0.82127-0.51247,0.82127-1.01259
		C9.36108,10.56937,8.8851,10.09291,8.29995,10.09291z"/><circle cx="10.516" cy="10.333" r=".479" fill="#FFF"/><circle cx="6.083" cy="10.333" r=".479" fill="#FFF"/><rect width="12.957" height="17.486" x="1" y="21.191" fill="#17416B"/><path fill="#FFF" d="M5.29784 36.81623h-2.6259v-2.6259h2.6259V36.81623zM3.15168 36.3365h1.66643v-1.66643H3.15168V36.3365zM8.7914 36.81623h-2.6259v-2.6259h2.6259V36.81623zM6.64523 36.3365h1.66643v-1.66643H6.64523V36.3365zM12.28542 36.81623h-2.6259v-2.6259h2.6259V36.81623zM10.13925 36.3365h1.66643v-1.66643h-1.66643V36.3365zM5.29784 33.43418h-2.6259v-2.62543h2.6259V33.43418zM3.15168 32.95444h1.66643v-1.66596H3.15168V32.95444zM8.7914 33.43418h-2.6259v-2.62543h2.6259V33.43418zM6.64523 32.95444h1.66643v-1.66596H6.64523V32.95444zM12.28542 33.43418h-2.6259v-2.62543h2.6259V33.43418zM10.13925 32.95444h1.66643v-1.66596h-1.66643V32.95444zM5.29784 30.0526h-2.6259v-2.6259h2.6259V30.0526zM3.15168 29.57286h1.66643v-1.66643H3.15168V29.57286zM8.7914 30.0526h-2.6259v-2.6259h2.6259V30.0526zM6.64523 29.57286h1.66643v-1.66643H6.64523V29.57286zM12.28542 30.0526h-2.6259v-2.6259h2.6259V30.0526zM10.13925 29.57286h1.66643v-1.66643h-1.66643V29.57286zM12.28542 26.5122H2.67194V23.0519h9.61348V26.5122zM3.15168 26.03246h8.65401v-2.50082H3.15168V26.03246z"/><path fill="#4498FB" d="M46.29287,2.62709v5.17455h-2.59132v36.93621c0,1.45306-1.17794,2.631-2.63101,2.631H15.99896
			l-0.03726-4.69792V6.12947c0-1.93431,1.56807-3.50238,3.50238-3.50238H46.29287z"/><path fill="#17416B" d="M46.35272,2.63005c-1.46199,0-2.64722,1.18523-2.64722,2.64722v2.52436H49V5.27727
		C49,3.81528,47.81477,2.63005,46.35272,2.63005z"/><path fill="#D7DCE2" d="M41.04957,47.37291H13.27284c-1.42761-0.01931-2.6098-1.1917-2.6098-2.64816v-2.52342h27.74797v2.52342
			C38.41101,46.17745,39.5793,47.37291,41.04957,47.37291z"/><path fill="#FFF" d="M35.93336,16.33035c0,4.17369-3.37737,7.55106-7.55106,7.55106
			c-4.17375,0-7.56066-3.37737-7.56066-7.55106c0-4.17375,3.38691-7.56066,7.56066-7.56066v7.56066H35.93336z"/><path fill="#FFF" d="M37.21827 15.04544h-7.55105V7.48478C33.8409 7.48478 37.21827 10.87169 37.21827 15.04544zM23.01204 32.68459h-4.40103v-4.40056h4.40103V32.68459zM19.09075 32.20486h3.44155v-3.44108h-3.44155V32.20486z"/><rect width="14.128" height=".48" x="26.542" y="29.099" fill="#FFF"/><rect width="9.805" height=".48" x="26.542" y="31.39" fill="#FFF"/><path fill="#FFF" d="M23.01204,39.6642h-4.40103v-4.40055h4.40103V39.6642z M19.09075,39.18447h3.44155v-3.44108h-3.44155
			V39.18447z"/><rect width="14.128" height=".48" x="26.542" y="36.079" fill="#FFF"/><rect width="9.805" height=".48" x="26.542" y="38.369" fill="#FFF"/></svg>