<svg xmlns="http://www.w3.org/2000/svg" width="48" height="48" viewBox="0 0 48 48"><g transform="translate(0 -1004.362)"><circle cx="24" cy="1028.362" r="24" fill="#3a6c87"/><path fill="#2f4b6c" style="line-height:normal;text-indent:0;text-align:start;text-decoration-line:none;text-decoration-style:solid;text-decoration-color:#000;text-transform:none;block-progression:tb;isolation:auto;mix-blend-mode:normal" d="m 26.173828,47.880859 c 0.638237,-0.05136 1.274162,-0.128247 1.90625,-0.230468 0.788216,-0.13603 1.569138,-0.311379 2.339844,-0.525391 0.771243,-0.213824 1.531307,-0.466092 2.277344,-0.755859 0.745706,-0.290121 1.476436,-0.617352 2.189453,-0.980469 0.518291,-0.272336 1.149212,-0.641671 1.646205,-0.951172 l -1.187779,-1.165458 -0.01116,0.0053 1.177735,1.177734 c 0.152633,-0.08493 0.304335,-0.171524 0.455078,-0.259766 0.673224,-0.432037 1.324428,-0.897461 1.951172,-1.394531 0.626949,-0.497603 1.228612,-1.026258 1.802734,-1.583984 0.573852,-0.557668 1.119456,-1.143686 1.634766,-1.755859 0.515929,-0.612086 1.00091,-1.249602 1.453125,-1.910157 0.451793,-0.660314 0.870284,-1.342807 1.253906,-2.044922 0.383446,-0.702217 0.731537,-1.423169 1.042969,-2.160156 0.311493,-0.737124 0.585924,-1.489365 0.822265,-2.253906 0.236536,-0.764358 0.4347,-1.540066 0.59375,-2.324219 0.15923,-0.783882 0.279171,-1.575234 0.359375,-2.371094 C 47.960505,25.600142 48.000268,24.800315 48,24 c -1.52e-4,-0.566292 -0.02035,-1.132402 -0.06055,-1.697266 -0.03908,-0.407449 -0.08857,-0.813832 -0.148437,-1.21875 l -10.9375,-10.9375 C 36.763036,10.056484 36.638058,10 36.5,10 l -25,0 c -0.276131,0 -0.499972,0.2239 -0.5,0.5 l 0,22 c 1.4e-5,0.1381 0.056,0.263016 0.146484,0.353516 z" color="#000" font-family="sans-serif" font-weight="400" transform="translate(0 1004.362)"/><path fill="#fff" style="line-height:normal;text-indent:0;text-align:start;text-decoration-line:none;text-decoration-style:solid;text-decoration-color:#000;text-transform:none;block-progression:tb;isolation:auto;mix-blend-mode:normal" d="M 2.5,3 C 2.2238691,3 2.0000276,3.2239 2,3.5 l 0,22 c 2.76e-5,0.2761 0.2238691,0.5 0.5,0.5 l 4.25,0 0,-1 L 3,25 3,8 27,8 27,18.236328 c 0.0092,0.048 0.03423,0.08997 0.03906,0.138672 C 27.31712,18.1484 27.659482,18.034144 28,18.027344 L 28,3.5 C 27.999972,3.2239 27.776131,3 27.5,3 L 2.5,3 Z M 3,4 27,4 27,7 3,7 3,4 Z M 4.5,5 A 0.5,0.5 0 0 0 4,5.5 0.5,0.5 0 0 0 4.5,6 0.5,0.5 0 0 0 5,5.5 0.5,0.5 0 0 0 4.5,5 Z m 2,0 A 0.5,0.5 0 0 0 6,5.5 0.5,0.5 0 0 0 6.5,6 0.5,0.5 0 0 0 7,5.5 0.5,0.5 0 0 0 6.5,5 Z m 2,0 A 0.5,0.5 0 0 0 8,5.5 0.5,0.5 0 0 0 8.5,6 0.5,0.5 0 0 0 9,5.5 0.5,0.5 0 0 0 8.5,5 Z m 9.019531,5 a 0.50005,0.50005 0 0 0 -0.04687,0.002 0.50005,0.50005 0 0 0 -0.40039,0.240235 l -4.992188,7.988281 a 0.50005,0.50005 0 1 0 0.847656,0.529297 l 4.992188,-7.988282 A 0.50005,0.50005 0 0 0 17.519531,10 Z m -7.035156,1 a 0.50005,0.50005 0 0 0 -0.34375,0.152344 l -2.9628906,2.964844 a 0.50005,0.50005 0 0 0 -0.1015625,0.11914 0.50005,0.50005 0 0 0 -0.019531,0.0332 0.50005,0.50005 0 0 0 -0.00195,0.002 0.50005,0.50005 0 0 0 -0.00586,0.01367 0.50005,0.50005 0 0 0 -0.011719,0.02344 0.50005,0.50005 0 0 0 -0.00977,0.02734 0.50005,0.50005 0 0 0 -0.00781,0.02344 0.50005,0.50005 0 0 0 -0.00586,0.02148 0.50005,0.50005 0 0 0 -0.00391,0.01953 0.50005,0.50005 0 0 0 -0.00195,0.01367 0.50005,0.50005 0 0 0 0.1777344,0.478516 l 2.9550777,2.957031 a 0.50005,0.50005 0 1 0 0.707031,-0.707031 L 8.2070312,14.5 10.847656,11.859375 A 0.50005,0.50005 0 0 0 10.484375,11 Z M 19.5,11 a 0.50005,0.50005 0 0 0 -0.347656,0.859375 L 21.792969,14.5 19.152344,17.142578 a 0.50005,0.50005 0 1 0 0.707031,0.707031 l 2.960937,-2.96289 a 0.50005,0.50005 0 0 0 0.02734,-0.744141 l -0.002,-0.002 -2.986328,-2.988281 A 0.50005,0.50005 0 0 0 19.5,11 Z m 3.908203,7 a 0.50004997,0.50004997 0 0 0 -0.5,0.5 l 0,0.894531 c -0.310038,0.096 -0.60858,0.217488 -0.896484,0.367188 l -0.628907,-0.626953 a 0.50004997,0.50004997 0 0 0 -0.707031,0 l -1.542969,1.541015 a 0.50004997,0.50004997 0 0 0 0,0.707031 l 0.63086,0.63086 c -0.150806,0.288 -0.276298,0.586084 -0.373047,0.896484 l -0.890625,0 a 0.50004997,0.50004997 0 0 0 -0.5,0.5 l 0,2.181641 a 0.50004997,0.50004997 0 0 0 0.5,0.5 l 0.892578,0 c 0.09604,0.3109 0.218902,0.609837 0.369141,0.898437 l -0.628907,0.628907 a 0.50004997,0.50004997 0 0 0 0,0.707031 l 1.542969,1.541016 a 0.50004997,0.50004997 0 0 0 0.707031,0 l 0.63086,-0.628907 c 0.287051,0.1503 0.585257,0.272541 0.894531,0.369141 l 0,0.892578 a 0.50004997,0.50004997 0 0 0 0.5,0.5 l 2.183594,0 a 0.50004997,0.50004997 0 0 0 0.5,-0.5 l 0,-0.892578 c 0.310018,-0.096 0.608599,-0.217488 0.896484,-0.367188 l 0.628907,0.626954 a 0.50004997,0.50004997 0 0 0 0.707031,0 l 1.542969,-1.541016 a 0.50004997,0.50004997 0 0 0 0,-0.707031 l -0.63086,-0.63086 c 0.150827,-0.288 0.276279,-0.586084 0.373047,-0.896484 l 0.890625,0 a 0.50004997,0.50004997 0 0 0 0.5,-0.5 l 0,-2.181641 a 0.50004997,0.50004997 0 0 0 -0.5,-0.5 l -0.892578,0 c -0.09599,-0.3107 -0.218994,-0.609937 -0.369141,-0.898437 l 0.628907,-0.628907 a 0.50004997,0.50004997 0 0 0 0,-0.707031 l -1.542969,-1.541015 a 0.50004997,0.50004997 0 0 0 -0.707031,0 l -0.63086,0.628906 c -0.287135,-0.1504 -0.585153,-0.272541 -0.894531,-0.369141 l 0,-0.894531 a 0.50004997,0.50004997 0 0 0 -0.5,-0.5 l -2.183594,0 z m 0.5,1 1.183594,0 0,0.71875 a 0.50004997,0.50004997 0 0 0 0.388672,0.488281 c 0.483297,0.1101 0.943456,0.300953 1.363281,0.564453 a 0.50004997,0.50004997 0 0 0 0.619141,-0.07031 l 0.507812,-0.50586 0.835938,0.833985 -0.50586,0.505859 a 0.50004997,0.50004997 0 0 0 -0.07031,0.617188 c 0.262401,0.4207 0.451796,0.883387 0.560547,1.367187 a 0.50004997,0.50004997 0 0 0 0.488281,0.390625 l 0.720703,0 0,1.181641 -0.71875,0 a 0.50004997,0.50004997 0 0 0 -0.488281,0.388672 c -0.11015,0.4833 -0.300894,0.945434 -0.564453,1.365234 a 0.50004997,0.50004997 0 0 0 0.07031,0.619141 l 0.507813,0.507812 -0.835938,0.833985 -0.505859,-0.503907 a 0.50004997,0.50004997 0 0 0 -0.617188,-0.07031 c -0.420659,0.2623 -0.883478,0.451747 -1.367187,0.560547 a 0.50004997,0.50004997 0 0 0 -0.388672,0.486328 l 0,0.720703 -1.183594,0 0,-0.71875 a 0.50004997,0.50004997 0 0 0 -0.388672,-0.486328 c -0.483329,-0.1101 -0.943428,-0.300853 -1.363281,-0.564453 a 0.50004997,0.50004997 0 0 0 -0.619141,0.07031 l -0.507812,0.50586 -0.835938,-0.833985 0.50586,-0.505859 a 0.50004997,0.50004997 0 0 0 0.07031,-0.619141 c -0.262401,-0.4207 -0.451796,-0.881534 -0.560547,-1.365234 a 0.50004997,0.50004997 0 0 0 -0.488281,-0.390625 l -0.720703,0 0,-1.181641 0.71875,0 a 0.50004997,0.50004997 0 0 0 0.488281,-0.388672 c 0.110123,-0.4833 0.300925,-0.945434 0.564453,-1.365234 a 0.50004997,0.50004997 0 0 0 -0.07031,-0.619141 l -0.507813,-0.507812 0.835938,-0.833985 0.505859,0.503907 a 0.50004997,0.50004997 0 0 0 0.617188,0.07031 c 0.420687,-0.2624 0.883447,-0.4537 1.367187,-0.5625 a 0.50004997,0.50004997 0 0 0 0.388672,-0.484375 l 0,-0.722656 z M 11.625,20.730469 a 0.50005,0.50005 0 0 0 -0.5,0.5 l 0,0.511719 c -0.144187,0.05 -0.284516,0.105774 -0.421875,0.171874 l -0.361328,-0.359374 a 0.50005,0.50005 0 0 0 -0.7070314,0 l -1.0605468,1.060546 a 0.50005,0.50005 0 0 0 0,0.707032 l 0.3613281,0.361328 c -0.066727,0.1376 -0.1257729,0.277375 -0.1757813,0.421875 l -0.5097656,0 a 0.50005,0.50005 0 0 0 -0.5,0.5 l 0,1.5 a 0.50005,0.50005 0 0 0 0.5,0.5 l 0.5117188,0 c 0.049494,0.1442 0.1057553,0.284475 0.171875,0.421875 l -0.359375,0.361328 a 0.50005,0.50005 0 0 0 0,0.707031 l 1.0605468,1.060547 a 0.50005,0.50005 0 0 0 0.7070314,0 l 0.361328,-0.361328 c 0.137418,0.067 0.277561,0.123828 0.421875,0.173828 l 0,0.511719 a 0.50005,0.50005 0 0 0 0.5,0.5 l 1.5,0 a 0.50005,0.50005 0 0 0 0.5,-0.5 l 0,-0.511719 c 0.144342,-0.05 0.284375,-0.107628 0.421875,-0.173828 l 0.361328,0.361328 a 0.50005,0.50005 0 0 0 0.707031,0 l 1.060547,-1.060547 a 0.50005,0.50005 0 0 0 0,-0.708984 l -0.359375,-0.359375 c 0.0666,-0.1374 0.123888,-0.277575 0.173828,-0.421875 l 0.509766,0 a 0.50005,0.50005 0 0 0 0.5,-0.5 l 0,-1.5 a 0.50005,0.50005 0 0 0 -0.5,-0.5 l -0.511719,0 c -0.04957,-0.1444 -0.107574,-0.284275 -0.173828,-0.421875 l 0.361328,-0.361328 a 0.50005,0.50005 0 0 0 0,-0.707032 l -1.060547,-1.060546 a 0.50005,0.50005 0 0 0 -0.707031,0 l -0.361328,0.361328 c -0.137617,-0.067 -0.277339,-0.125782 -0.421875,-0.175782 l 0,-0.509765 a 0.50005,0.50005 0 0 0 -0.5,-0.5 l -1.5,0 z m 0.5,1 0.5,0 0,0.33789 a 0.50005,0.50005 0 0 0 0.388672,0.486329 c 0.315149,0.072 0.616869,0.19724 0.890625,0.36914 a 0.50005,0.50005 0 0 0 0.619141,-0.07031 l 0.238281,-0.238282 0.353515,0.353516 -0.238281,0.236328 a 0.50005,0.50005 0 0 0 -0.07031,0.619141 c 0.171092,0.2743 0.296267,0.575225 0.367187,0.890625 a 0.50005,0.50005 0 0 0 0.486328,0.390625 l 0.339844,0 0,0.5 -0.337891,0 a 0.50005,0.50005 0 0 0 -0.488281,0.388672 c -0.07184,0.3151 -0.195323,0.614972 -0.367187,0.888671 a 0.50005,0.50005 0 0 0 0.07031,0.621094 l 0.238281,0.238282 -0.353515,0.351562 -0.236328,-0.236328 a 0.50005,0.50005 0 0 0 -0.619141,-0.07031 c -0.274317,0.1711 -0.575194,0.294335 -0.890625,0.365235 A 0.50005,0.50005 0 0 0 12.625,28.640625 l 0,0.339844 -0.5,0 0,-0.337891 a 0.50005,0.50005 0 0 0 -0.388672,-0.488281 c -0.315178,-0.072 -0.616843,-0.195288 -0.890625,-0.367188 a 0.50005,0.50005 0 0 0 -0.619141,0.06836 L 9.9882812,28.09375 9.6347656,27.740234 9.8730469,27.501953 a 0.50005,0.50005 0 0 0 0.070312,-0.617187 C 9.7722672,26.610566 9.6470917,26.309541 9.5761719,25.994141 A 0.50005,0.50005 0 0 0 9.0898438,25.603516 l -0.3398438,0 0,-0.5 0.3378906,0 a 0.50005,0.50005 0 0 0 0.4882813,-0.388672 c 0.071813,-0.3151 0.1953529,-0.616825 0.3671875,-0.890625 A 0.50005,0.50005 0 0 0 9.8730474,23.205078 L 9.6347661,22.966797 9.9882817,22.613281 10.22461,22.849609 a 0.50005,0.50005 0 0 0 0.619141,0.07031 c 0.274317,-0.1711 0.575194,-0.294335 0.890625,-0.365234 A 0.50005,0.50005 0 0 0 12.125,22.068359 l 0,-0.33789 z M 24.5,22.001953 c -1.372127,0 -2.5,1.125647 -2.5,2.498047 0,1.3725 1.127903,2.5 2.5,2.5 1.372247,0 2.5,-1.1278 2.5,-2.5 0,-1.372 -1.127723,-2.498047 -2.5,-2.498047 z m 0,1 c 0.826123,0 1.5,0.672147 1.5,1.498047 0,0.8261 -0.673847,1.5 -1.5,1.5 -0.825903,0 -1.5,-0.6743 -1.5,-1.5 0,-0.8255 0.674127,-1.498047 1.5,-1.498047 z m -12.125,0.707031 c -0.902903,0 -1.646484,0.743285 -1.646484,1.646485 0,0.9032 0.743581,1.644531 1.646484,1.644531 0.902959,0 1.646484,-0.741631 1.646484,-1.644531 0,-0.903 -0.743525,-1.646485 -1.646484,-1.646485 z m 0,1 c 0.356841,0 0.646484,0.289685 0.646484,0.646485 0,0.3567 -0.289643,0.644531 -0.646484,0.644531 -0.356697,0 -0.646484,-0.288131 -0.646484,-0.644531 0,-0.3566 0.289787,-0.646485 0.646484,-0.646485 z" color="#000" font-family="sans-serif" font-weight="400" overflow="visible" transform="translate(9 1011.362)"/></g></svg>