<svg xmlns="http://www.w3.org/2000/svg" enable-background="new 250 -250 1000 1000" viewBox="250 -250 1000 1000"><path fill="#e1e1ff" d="M1125-92V592c0,6.8-5.5,12.4-12.4,12.4H387.4c-6.8,0-12.4-5.5-12.4-12.4V-92
		c0-6.8,5.5-12.4,12.4-12.4h725.3C1119.5-104.3,1125-98.8,1125-92z"/><rect width="317" height="104.3" x="481.5" y="92.8" fill="#a6a6ff"/><rect width="155.4" height="104.3" x="479.1" y="252.3" fill="#a6a6ff"/><rect width="155.4" height="104.3" x="479.5" y="419" fill="#a6a6ff"/><path fill="#161616" d="M1112.6-104.3H387.4c-6.8,0-12.4,5.5-12.4,12.4V592c0,6.8,5.5,12.4,12.4,12.4h725.3
				c6.8,0,12.4-5.5,12.4-12.4V-92C1125-98.8,1119.5-104.3,1112.6-104.3z M1100.3,579.6H399.7V-79.6h700.5V579.6z"/><path fill="#161616" d="M1112.6 37.5H387.4c-6.8 0-12.4-5.5-12.4-12.4s5.5-12.4 12.4-12.4h725.3c6.8 0 12.4 5.5 12.4 12.4S1119.5 37.5 1112.6 37.5zM863.9-21h-14.2c-6.8 0-12.4-5.5-12.4-12.4s5.5-12.4 12.4-12.4h14.2c6.8 0 12.4 5.5 12.4 12.4S870.8-21 863.9-21zM932.2-21H918c-6.8 0-12.4-5.5-12.4-12.4s5.5-12.4 12.4-12.4h14.2c6.8 0 12.4 5.5 12.4 12.4S939-21 932.2-21zM1026.1-21h-39.8c-6.8 0-12.4-5.5-12.4-12.4s5.5-12.4 12.4-12.4h39.8c6.8 0 12.4 5.5 12.4 12.4S1032.9-21 1026.1-21zM949.4 75.5c-48.2 0-87.5 39.2-87.5 87.5 0 48.2 39.2 87.5 87.5 87.5 11.6 0 22.7-2.3 32.9-6.4 7.7-3.1 14.9-7.4 21.4-12.5 20.2-16 33.2-40.8 33.2-68.6C1036.9 114.7 997.7 75.5 949.4 75.5zM995.3 205.7c-2.5 2.6-5.1 5.1-8 7.2-4.2 3.2-8.8 5.9-13.7 7.9-1 .4-2 .8-3 1.2-6.6 2.4-13.8 3.7-21.2 3.7-6.1 0-12-.9-17.6-2.5-9.3-2.7-17.7-7.6-24.7-13.9-12.6-11.5-20.4-28-20.4-46.3 0-34.6 28.2-62.7 62.7-62.7 34.6 0 62.7 28.1 62.7 62.7C1012.2 179.5 1005.8 194.5 995.3 205.7z"/><path fill="#161616" d="M995.4,219.3l-24.7,8.9v-21.3c0-11.5-8.7-20.8-19.4-20.8s-19.4,9.3-19.4,20.8v25.9
					l-24.7-13.6v-12.4c0-25.1,19.8-45.6,44.1-45.6s44.1,20.4,44.1,45.6V219.3z"/><ellipse cx="951.3" cy="137.8" fill="#161616" rx="24.1" ry="25.2"/><path fill="#161616" d="M1026.3,304.4c-4.2,0-8.2-2.1-10.6-5.9l-41.1-66.9c-3.6-5.8-1.8-13.4,4.1-17
					c5.8-3.6,13.4-1.7,17,4.1l41.1,66.9c3.6,5.8,1.8,13.4-4.1,17C1030.8,303.9,1028.5,304.4,1026.3,304.4z"/><ellipse cx="956.3" cy="391.5" fill="#161616" rx="24.1" ry="25.2"/><path fill="#161616" d="M798.4 75.5H476.8c-6.8 0-12.4 5.5-12.4 12.4v108.9c0 6.8 5.5 12.4 12.4 12.4h321.5c6.8 0 12.4-5.5 12.4-12.4V87.9C810.7 81 805.2 75.5 798.4 75.5zM786 184.4H489.2v-84.2H786V184.4zM1023.2 319.1H703c-6.8 0-12.4 5.6-12.4 12.4v194.2c0 6.8 5.5 12.4 12.4 12.4h320.2c6.8 0 12.4-5.5 12.4-12.4V331.4C1035.5 324.6 1030 319.1 1023.2 319.1zM1010.8 513.3H715.4V343.8h295.4V513.3zM637.6 237.6H476.8c-6.8 0-12.4 5.5-12.4 12.4v108.9c0 6.8 5.5 12.4 12.4 12.4h160.8c6.8 0 12.4-5.5 12.4-12.4V250C649.9 243.2 644.4 237.6 637.6 237.6zM625.2 346.6h-136v-84.2h136V346.6zM637.6 404.4H476.8c-6.8 0-12.4 5.5-12.4 12.4v108.9c0 6.8 5.5 12.4 12.4 12.4h160.8c6.8 0 12.4-5.5 12.4-12.4V416.7C649.9 409.9 644.4 404.4 637.6 404.4zM625.2 513.3h-136v-84.2h136V513.3z"/><path fill="#161616" d="M975.5,518.1l-3.7-4.8l-67.6-87.5c-3-3.8-7.9-5.6-12.6-4.5l-64.8,15.1l-40.5-55.9
				c-2.1-2.9-5.5-4.8-9.1-5.1c-3.7-0.3-7.2,1.1-9.7,3.7l-52,53.5l-21.2,21.8c-2.2,2.3-3.5,5.4-3.5,8.6v62.6
				c0,6.8,5.5,12.4,12.4,12.4h262.7c4.7,0,9-2.7,11.1-6.9C979,526.9,978.4,521.9,975.5,518.1z M715.4,513.3v-45.2l59.5-61.1
				l36.7,50.7c2.9,4,7.9,5.9,12.8,4.8l65.1-15.2l51.1,66.1H715.4z"/></svg>