<svg xmlns="http://www.w3.org/2000/svg" data-name="Layer 1" viewBox="0 0 64 64"><path d="M53.76,55.76h-5a2,2,0,0,1,0-4h3V12.24H12.24V51.76H38.61a2,2,0,0,1,0,4H10.24a2,2,0,0,1-2-2V10.24a2,2,0,0,1,2-2H53.76a2,2,0,0,1,2,2V53.76A2,2,0,0,1,53.76,55.76Z"/><path d="M44.27,46.27a2,2,0,0,1-1.42-.59l-10-10a2,2,0,0,1,1.42-3.41h7.09a2,2,0,0,1,0,4H39.08l6.6,6.6a2,2,0,0,1-1.41,3.42Z"/><path d="M34.25 43.57a2 2 0 01-2-2V34.25a2 2 0 014 0v7.32A2 2 0 0134.25 43.57zM29.75 31.75H22.66a2 2 0 110-4h2.26l-6.6-6.6a2 2 0 012.83-2.83l10 10a2 2 0 01-1.42 3.41z"/><path d="M29.75,31.75a2,2,0,0,1-2-2V22.43a2,2,0,0,1,4,0v7.32A2,2,0,0,1,29.75,31.75Z"/></svg>