<svg xmlns="http://www.w3.org/2000/svg" width="32" height="32" viewBox="0 0 32 32"><g transform="translate(0 -1020.363)"><path fill="#f4606e" style="line-height:normal;text-indent:0;text-align:start;text-decoration-line:none;text-decoration-style:solid;text-decoration-color:#000;text-transform:none;block-progression:tb;isolation:auto;mix-blend-mode:normal" d="m 15.93332,1050.3609 c 7.696453,0 14,-6.3035 14,-14 0,-7.6964 -6.303547,-14 -14,-14 -7.696453,0 -14,6.3036 -14,14 0,7.6965 6.303547,14 14,14 z m 0,-6 c -4.453812,0 -8,-3.5462 -8,-8 0,-4.4538 3.546188,-8 8,-8 4.453812,0 8,3.5462 8,8 0,4.4538 -3.546188,8 -8,8 z" color="#000" font-family="sans-serif" font-weight="400" overflow="visible"/><path fill="none" stroke="#000" stroke-linecap="square" stroke-linejoin="round" stroke-miterlimit="3.5" style="isolation:auto;mix-blend-mode:normal" d="m 16.449534,-1050.5321 a 10,10 0 0 1 11.978382,1.5228 10,10 0 0 1 1.780205,11.9429" color="#000" overflow="visible" transform="scale(1 -1)"/><path fill="none" stroke="#000" stroke-linecap="round" stroke-linejoin="round" stroke-miterlimit="3.5" d="m -4.507638,-1049.8179 a 10,10 0 0 1 0.9101773,0.7839" color="#000" overflow="visible" style="isolation:auto;mix-blend-mode:normal" transform="scale(-1)"/><path fill="#fff" style="line-height:normal;text-indent:0;text-align:start;text-decoration-line:none;text-decoration-style:solid;text-decoration-color:#000;text-transform:none;block-progression:tb;isolation:auto;mix-blend-mode:normal" d="m 15.933594,1.9980469 c -7.6964532,0 -14.0000002,6.3036 -14.0000002,14.0000001 0,7.6965 6.303547,14 14.0000002,14 0.253018,0 0.500166,-0.02366 0.75,-0.03711 -7.3497299,-0.395693 -13.2500002,-6.51941 -13.2500002,-13.96289 0,-7.4433674 5.9002921,-13.5652141 13.2500002,-13.9609376 -0.249849,-0.013452 -0.496966,-0.039062 -0.75,-0.039062 z m 1.5,6 c -0.253294,0 -0.503063,0.014655 -0.75,0.037109 4.095105,0.3723656 7.25,3.7623841 7.25,7.9628911 0,4.200507 -3.154895,7.590525 -7.25,7.962891 0.246937,0.02245 0.496706,0.03711 0.75,0.03711 4.453812,0 8,-3.5462 8,-8 0,-4.4538 -3.546188,-8.0000004 -8,-8.0000004 z" color="#000" font-family="sans-serif" font-weight="400" overflow="visible" transform="translate(0 1020.362)"/><path fill="none" stroke="#000" stroke-linecap="square" stroke-linejoin="round" stroke-miterlimit="3.5" d="m 16.449541,1022.1922 a 10,10 0 0 1 11.978382,1.5229 10,10 0 0 1 1.780206,11.9428" color="#000" overflow="visible" style="isolation:auto;mix-blend-mode:normal"/><path fill="none" stroke="#000" stroke-linecap="square" stroke-linejoin="round" stroke-miterlimit="3.5" style="isolation:auto;mix-blend-mode:normal" d="m -15.55046,1022.1922 a 10,10 0 0 1 11.9783825,1.5229 10,10 0 0 1 1.7802052,11.9428" color="#000" overflow="visible" transform="scale(-1 1)"/><path fill="#f89963" d="m 15.93332,1022.3602 c 7.696453,0 14,6.3036 14,14 0,7.6965 -6.303547,14 -14,14 -0.253018,0 -0.500166,-0.024 -0.75,-0.037 7.34973,-0.3957 13.25,-6.5194 13.25,-13.9629 0,-7.4433 -5.900292,-13.5652 -13.25,-13.9609 0.249849,-0.013 0.496966,-0.039 0.75,-0.039 z m -1.5,6 c 0.253294,0 0.503063,0.015 0.75,0.037 -4.095105,0.3723 -7.2500002,3.7623 -7.2500002,7.9628 0,4.2006 3.1548952,7.5906 7.2500002,7.9629 -0.246937,0.023 -0.496706,0.037 -0.75,0.037 -4.4538122,0 -8.0000002,-3.5462 -8.0000002,-8 0,-4.4538 3.546188,-8 8.0000002,-8 z" color="#000" font-family="sans-serif" font-weight="400" overflow="visible" style="line-height:normal;text-indent:0;text-align:start;text-decoration-line:none;text-decoration-style:solid;text-decoration-color:#000;text-transform:none;block-progression:tb;isolation:auto;mix-blend-mode:normal"/><path fill="none" stroke="#000" stroke-linecap="square" stroke-linejoin="round" stroke-miterlimit="3.5" d="m 15.93332,1050.3609 c 7.696453,0 14,-6.3035 14,-14 0,-7.6964 -6.303547,-14 -14,-14 -7.696453,0 -14,6.3036 -14,14 0,7.6965 6.303547,14 14,14 z" color="#000" font-family="sans-serif" font-weight="400" overflow="visible" style="line-height:normal;text-indent:0;text-align:start;text-decoration-line:none;text-decoration-style:solid;text-decoration-color:#000;text-transform:none;block-progression:tb;isolation:auto;mix-blend-mode:normal"/><path fill="#01d1ff" style="line-height:normal;text-indent:0;text-align:start;text-decoration-line:none;text-decoration-style:solid;text-decoration-color:#000;text-transform:none;block-progression:tb;isolation:auto;mix-blend-mode:normal" d="m 15.933319,1050.3622 c 1.923469,0 3.75882,-0.3928 5.431641,-1.1036 l -2.523438,-5.4394 c -0.900305,0.3467 -1.87817,0.543 -2.908203,0.543 -0.793402,0 -1.556463,-0.1161 -2.277344,-0.3262 l -2.060547,5.6269 c 1.36826,0.4501 2.824604,0.6993 4.337891,0.6993 z m -2.908203,-21.4551 c 0.900305,-0.3467 1.87817,-0.5449 2.908203,-0.5449 0.793402,0 1.556463,0.1179 2.277344,0.3281 l 2.060547,-5.627 c -1.36826,-0.45 -2.824604,-0.7011 -4.337891,-0.7011 -1.923469,0 -3.75882,0.3947 -5.431641,1.1054 z" color="#000" font-family="sans-serif" font-weight="400" overflow="visible"/><path fill="#fff" style="line-height:normal;text-indent:0;text-align:start;text-decoration-line:none;text-decoration-style:solid;text-decoration-color:#000;text-transform:none;block-progression:tb;isolation:auto;mix-blend-mode:normal" d="m 15.933594,2 c -1.923469,0 -3.75882,0.3927156 -5.431641,1.1035156 l 2.523438,5.4394532 C 13.44913,8.3797901 13.890248,8.2519151 14.345703,8.1601562 L 12,3.1035156 C 13.47919,2.4749915 15.089579,2.1127253 16.771484,2.0332031 16.493392,2.0161775 16.21585,2 15.933594,2 Z m 1.498047,6 c -0.286713,0 -0.567623,0.017446 -0.845703,0.046875 0.558571,0.045538 1.10577,0.1279678 1.625,0.2792969 L 18.306641,8.0625 C 18.018129,8.0309804 17.72932,8 17.431641,8 Z m 1.410156,15.455078 c -0.650867,0.250644 -1.344061,0.419454 -2.066406,0.496094 0.21821,0.0181 0.432969,0.04883 0.65625,0.04883 0.545801,0 1.075162,-0.0582 1.58789,-0.162109 L 18.841797,23.45508 Z m -5.185547,0.216797 -2.060547,5.626953 C 12.963963,29.748828 14.420307,30 15.933594,30 c 0.228245,0 0.450142,-0.02417 0.675781,-0.03516 -1.218395,-0.07367 -2.397827,-0.298389 -3.515625,-0.666016 l 1.964844,-5.363281 C 14.57815,23.882521 14.106651,23.803206 13.65625,23.671875 Z" color="#000" font-family="sans-serif" font-weight="400" overflow="visible" transform="translate(0 1020.362)"/><path fill="#00a5ff" d="m 15.933319,1050.3618 c 1.923469,0 3.75882,-0.3927 5.431641,-1.1035 l -2.523438,-5.4395 c -0.423739,0.1632 -0.864857,0.2911 -1.320312,0.3828 l 2.345703,5.0567 c -1.47919,0.6285 -3.089579,0.9908 -4.771484,1.0703 0.278092,0.017 0.555634,0.033 0.83789,0.033 z m -1.498047,-6 c 0.286713,0 0.567623,-0.017 0.845703,-0.047 -0.558571,-0.045 -1.10577,-0.1279 -1.625,-0.2793 l -0.0957,0.2637 c 0.288512,0.032 0.577321,0.062 0.875,0.062 z m -1.410156,-15.4551 c 0.650867,-0.2506 1.344061,-0.4194 2.066406,-0.4961 -0.21821,-0.018 -0.432969,-0.049 -0.65625,-0.049 -0.545801,0 -1.075162,0.058 -1.58789,0.1621 l 0.177734,0.3828 z m 5.185547,-0.2168 2.060547,-5.6269 c -1.36826,-0.45 -2.824604,-0.7012 -4.337891,-0.7012 -0.228245,0 -0.450142,0.024 -0.675781,0.035 1.218395,0.074 2.397827,0.2983 3.515625,0.666 l -1.964844,5.3633 c 0.480444,0.053 0.951943,0.1323 1.402344,0.2636 z" color="#000" font-family="sans-serif" font-weight="400" overflow="visible" style="line-height:normal;text-indent:0;text-align:start;text-decoration-line:none;text-decoration-style:solid;text-decoration-color:#000;text-transform:none;block-progression:tb;isolation:auto;mix-blend-mode:normal"/><path fill="none" stroke="#000" stroke-linecap="square" stroke-linejoin="round" stroke-miterlimit="3.5" d="m 15.933319,1022.3618 c -1.923469,0 -3.75882,0.3928 -5.431641,1.1036 l 2.523438,5.4394 c 0.900305,-0.3467 1.87817,-0.543 2.908203,-0.543 0.793402,0 1.556463,0.1161 2.277344,0.3262 l 2.060547,-5.6269 c -1.36826,-0.4501 -2.824604,-0.6993 -4.337891,-0.6993 z m 2.908203,21.4551 c -0.900305,0.3467 -1.87817,0.5449 -2.908203,0.5449 -0.793402,0 -1.556463,-0.1179 -2.277344,-0.3281 l -2.060547,5.627 c 1.36826,0.45 2.824604,0.7011 4.337891,0.7011 1.923469,0 3.75882,-0.3947 5.431641,-1.1054 z" color="#000" font-family="sans-serif" font-weight="400" overflow="visible" style="line-height:normal;text-indent:0;text-align:start;text-decoration-line:none;text-decoration-style:solid;text-decoration-color:#000;text-transform:none;block-progression:tb;isolation:auto;mix-blend-mode:normal"/><path fill="#01d1ff" d="m 29.933319,1036.3618 c 0,-1.9235 -0.39275,-3.7588 -1.10352,-5.4316 l -5.43945,2.5234 c 0.34671,0.9003 0.54297,1.8782 0.54297,2.9082 0,0.7934 -0.11602,1.5565 -0.32617,2.2773 l 5.62695,2.0606 c 0.45007,-1.3683 0.69922,-2.8246 0.69922,-4.3379 z m -21.45508,2.9082 c -0.3467,-0.9003 -0.54492,-1.8782 -0.54492,-2.9082 0,-0.7934 0.11797,-1.5565 0.32812,-2.2773 l -5.62695,-2.0606 c -0.45006,1.3683 -0.70117,2.8246 -0.70117,4.3379 0,1.9235 0.39471,3.7588 1.10547,5.4316 z" color="#000" font-family="sans-serif" font-weight="400" overflow="visible" style="line-height:normal;text-indent:0;text-align:start;text-decoration-line:none;text-decoration-style:solid;text-decoration-color:#000;text-transform:none;block-progression:tb;isolation:auto;mix-blend-mode:normal"/><path fill="#00a5ff" style="line-height:normal;text-indent:0;text-align:start;text-decoration-line:none;text-decoration-style:solid;text-decoration-color:#000;text-transform:none;block-progression:tb;isolation:auto;mix-blend-mode:normal" d="m 28.830078,10.568359 -1.28125,0.59375 c 0.562598,1.511658 0.884766,3.136902 0.884766,4.837891 0,1.332651 -0.203146,2.616771 -0.556641,3.839844 l 1.357422,0.498047 C 29.684445,18.969591 29.933594,17.5133 29.933594,16 c 0,-1.9235 -0.392746,-3.758841 -1.103516,-5.431641 z m -26.1953124,1.09375 c -0.053624,0.16303 -0.094691,0.330618 -0.1425781,0.496094 l 4.2695313,1.564453 C 6.5515687,14.443456 6.4335938,15.2066 6.4335938,16 c 0,1.03 0.1982218,2.007903 0.5449218,2.908203 l -4.1582031,1.929688 c 0.073554,0.197474 0.1366391,0.400499 0.21875,0.59375 L 8.4785156,18.908203 C 8.1318156,18.007903 7.9335938,17.03 7.9335938,16 c 0,-0.7934 0.117975,-1.556544 0.328125,-2.277344 L 2.6347656,11.662109 Z" color="#000" font-family="sans-serif" font-weight="400" overflow="visible" transform="translate(0 1020.362)"/><path fill="#fff" style="line-height:normal;text-indent:0;text-align:start;text-decoration-line:none;text-decoration-style:solid;text-decoration-color:#000;text-transform:none;block-progression:tb;isolation:auto;mix-blend-mode:normal" d="m 28.830078,10.568359 -5.439453,2.523438 c 0.34671,0.9003 0.542969,1.878203 0.542969,2.908203 0,0.7934 -0.116022,1.556544 -0.326172,2.277344 l 5.626953,2.060547 c 0.05373,-0.16334 0.09466,-0.332252 0.142578,-0.498047 l -4.269531,-1.5625 C 25.317572,17.556544 25.433594,16.7934 25.433594,16 c 0,-1.03 -0.196259,-2.007903 -0.542969,-2.908203 l 4.158203,-1.929688 c -0.0736,-0.197744 -0.136528,-0.40024 -0.21875,-0.59375 z M 2.6347656,11.662109 C 2.1847056,13.030409 1.9335938,14.4867 1.9335938,16 c 0,1.9235 0.3947087,3.758841 1.1054687,5.431641 l 1.28125,-0.59375 C 3.7571795,19.32601 3.4335938,17.701287 3.4335938,16 c 0,-1.333084 0.2045245,-2.618369 0.5585937,-3.841797 L 2.6347656,11.662109 Z" color="#000" font-family="sans-serif" font-weight="400" overflow="visible" transform="translate(0 1020.362)"/><path fill="none" stroke="#000" stroke-linecap="square" stroke-linejoin="round" stroke-miterlimit="3.5" d="m 29.933319,1036.3618 c 0,-1.9235 -0.39275,-3.7588 -1.10352,-5.4316 l -5.43945,2.5234 c 0.34671,0.9003 0.54297,1.8782 0.54297,2.9082 0,0.7934 -0.11602,1.5565 -0.32617,2.2773 l 5.62695,2.0606 c 0.45007,-1.3683 0.69922,-2.8246 0.69922,-4.3379 z m -21.45508,2.9082 c -0.3467,-0.9003 -0.54492,-1.8782 -0.54492,-2.9082 0,-0.7934 0.11797,-1.5565 0.32812,-2.2773 l -5.62695,-2.0606 c -0.45006,1.3683 -0.70117,2.8246 -0.70117,4.3379 0,1.9235 0.39471,3.7588 1.10547,5.4316 z" color="#000" font-family="sans-serif" font-weight="400" overflow="visible" style="line-height:normal;text-indent:0;text-align:start;text-decoration-line:none;text-decoration-style:solid;text-decoration-color:#000;text-transform:none;block-progression:tb;isolation:auto;mix-blend-mode:normal"/><path fill="none" stroke="#000" stroke-linecap="round" stroke-linejoin="round" stroke-miterlimit="3.5" d="m 22.118004,1031.2574 c 0.08119,0.099 0.160036,0.1992 0.236465,0.3017 m 0.796024,1.318 c 0.05581,0.1167 0.108888,0.2351 0.159144,0.3549 0.200983,0.4793 0.356944,0.9832 0.462609,1.5064 0.105665,0.5232 0.161074,1.0658 0.161074,1.6225 0,4.4538 -3.546188,8 -8,8 -4.453812,0 -8,-3.5462 -8,-8 0,-4.4538 3.546188,-8 8,-8 0.556727,0 1.099271,0.055 1.622481,0.1611 0.52321,0.1056 1.027085,0.2616 1.506471,0.4626 0.479386,0.201 0.934284,0.4471 1.35954,0.7332" color="#000" font-family="sans-serif" font-weight="400" overflow="visible" style="line-height:normal;text-indent:0;text-align:start;text-decoration-line:none;text-decoration-style:solid;text-decoration-color:#000;text-transform:none;block-progression:tb;isolation:auto;mix-blend-mode:normal"/><path fill="none" stroke="#000" stroke-linecap="round" stroke-linejoin="round" stroke-miterlimit="3.5" style="isolation:auto;mix-blend-mode:normal" d="M-2.3960743-1047.6281a10 10 0 0 1 .6041982 10.5617M-15.860697-1050.3463a10 10 0 0 1 7.81618-1.193M-6.4928301-1050.9951a10 10 0 0 1 .4093264.1938" color="#000" overflow="visible" transform="scale(-1)"/></g></svg>