<svg xmlns="http://www.w3.org/2000/svg" width="512" height="512" viewBox="0 0 512 512"><path fill="#24afd6" d="M352,488H176v-7.057a20,20,0,0,1,16.712-19.728l6.22-1.037A30,30,0,0,0,224,430.586V408h80v22.586a30,30,0,0,0,25.068,29.592l6.22,1.037A20,20,0,0,1,352,480.943Z"/><rect width="464" height="264" x="24" y="152" fill="#ecfbf9" rx="10" ry="10"/><path fill="#57cee6" d="M24,360H488a0,0,0,0,1,0,0v46a10,10,0,0,1-10,10H34a10,10,0,0,1-10-10V360A0,0,0,0,1,24,360Z"/><rect width="400" height="360" x="56" y="24" fill="#fffdfa" rx="10" ry="10"/><path fill="#fac850" d="M66,24H446a10,10,0,0,1,10,10V72a0,0,0,0,1,0,0H56a0,0,0,0,1,0,0V34A10,10,0,0,1,66,24Z"/><rect width="16" height="16" x="80" y="40" fill="#fffdfa"/><rect width="16" height="16" x="112" y="40" fill="#fffdfa"/><rect width="16" height="16" x="144" y="40" fill="#fffdfa"/><rect width="16" height="16" x="416" y="40" fill="#fffdfa"/><rect width="176" height="32" x="168" y="312" fill="#c85aed"/><polygon fill="#c85aed" points="113.08 264 158.92 264 136 236.496 113.08 264"/><polygon fill="#c85aed" points="158.92 184 113.08 184 136 211.504 158.92 184"/><polygon fill="#c85aed" points="168 249.904 168 198.096 146.414 224 168 249.904"/><polygon fill="#c85aed" points="104 198.096 104 249.904 125.586 224 104 198.096"/><path fill="#c85aed" d="M176,168H96a8,8,0,0,0-8,8v96a8,8,0,0,0,8,8h80a8,8,0,0,0,8-8V176A8,8,0,0,0,176,168Zm0,104H96V176h80Z"/><rect width="48" height="16" x="88" y="136" fill="#c85aed"/><rect width="32" height="16" x="152" y="136" fill="#c85aed"/><rect width="96" height="16" x="88" y="104" fill="#c85aed"/><polygon fill="#c85aed" points="288 249.904 288 198.096 266.414 224 288 249.904"/><polygon fill="#c85aed" points="278.92 184 233.08 184 256 211.504 278.92 184"/><polygon fill="#c85aed" points="233.08 264 278.92 264 256 236.496 233.08 264"/><polygon fill="#c85aed" points="224 198.096 224 249.904 245.586 224 224 198.096"/><path fill="#c85aed" d="M296,168H216a8,8,0,0,0-8,8v96a8,8,0,0,0,8,8h80a8,8,0,0,0,8-8V176A8,8,0,0,0,296,168Zm0,104H216V176h80Z"/><rect width="48" height="16" x="208" y="136" fill="#c85aed"/><rect width="32" height="16" x="272" y="136" fill="#c85aed"/><rect width="96" height="16" x="208" y="104" fill="#c85aed"/><g><polygon fill="#c85aed" points="398.92 184 353.08 184 376 211.504 398.92 184"/><polygon fill="#c85aed" points="408 249.904 408 198.096 386.414 224 408 249.904"/><polygon fill="#c85aed" points="353.08 264 398.92 264 376 236.496 353.08 264"/><polygon fill="#c85aed" points="344 198.096 344 249.904 365.586 224 344 198.096"/><path fill="#c85aed" d="M416,168H336a8,8,0,0,0-8,8v96a8,8,0,0,0,8,8h80a8,8,0,0,0,8-8V176A8,8,0,0,0,416,168Zm0,104H336V176h80Z"/><rect width="48" height="16" x="328" y="136" fill="#c85aed"/><rect width="32" height="16" x="392" y="136" fill="#c85aed"/><rect width="96" height="16" x="328" y="104" fill="#c85aed"/></g><g><rect width="32" height="16" x="392" y="336" fill="#fac850"/><rect width="56" height="16" x="368" y="304" fill="#fac850"/></g><g><rect width="32" height="16" x="88" y="336" fill="#fac850"/><rect width="56" height="16" x="88" y="304" fill="#fac850"/></g></svg>