<svg xmlns="http://www.w3.org/2000/svg" xmlns:xlink="http://www.w3.org/1999/xlink" width="210" zoomAndPan="magnify" viewBox="0 0 157.5 30.000001" height="40" preserveAspectRatio="xMidYMid meet" version="1.0"><defs><g/><clipPath id="id1"><path d="M 2.296875 0 L 154.71875 0 L 154.71875 29.03125 L 2.296875 29.03125 Z M 2.296875 0 " clip-rule="nonzero"/></clipPath><clipPath id="id2"><path d="M 5.210938 4 L 42 4 L 42 25 L 5.210938 25 Z M 5.210938 4 " clip-rule="nonzero"/></clipPath></defs><g clip-path="url(#id1)"><path fill="#ffffff" d="M 2.296875 0 L 155.203125 0 L 155.203125 36.40625 L 2.296875 36.40625 Z M 2.296875 0 " fill-opacity="1" fill-rule="nonzero"/><path fill="#ffffff" d="M 2.296875 0 L 155.203125 0 L 155.203125 29.125 L 2.296875 29.125 Z M 2.296875 0 " fill-opacity="1" fill-rule="nonzero"/><path fill="#ffffff" d="M 2.296875 0 L 155.203125 0 L 155.203125 29.125 L 2.296875 29.125 Z M 2.296875 0 " fill-opacity="1" fill-rule="nonzero"/></g><path fill="#00a19a" d="M 23.777344 14.476562 C 21.609375 16.617188 21.609375 20.085938 23.777344 22.226562 C 25.945312 24.367188 29.460938 24.367188 31.632812 22.226562 L 39.484375 14.476562 C 41.652344 12.335938 41.652344 8.867188 39.484375 6.726562 C 37.316406 4.585938 33.800781 4.585938 31.632812 6.726562 Z M 23.777344 14.476562 " fill-opacity="1" fill-rule="nonzero"/><path fill="#00a19a" d="M 23.777344 14.476562 C 25.945312 12.335938 25.945312 8.867188 23.777344 6.726562 C 21.609375 4.585938 18.09375 4.585938 15.925781 6.726562 L 8.070312 14.476562 C 5.902344 16.617188 5.902344 20.085938 8.070312 22.226562 C 10.238281 24.367188 13.753906 24.367188 15.925781 22.226562 Z M 23.777344 14.476562 " fill-opacity="1" fill-rule="nonzero"/><path fill="#ffb300" d="M 23.777344 22.226562 C 25.945312 24.367188 29.460938 24.367188 31.632812 22.226562 C 33.800781 20.085938 33.800781 16.617188 31.632812 14.476562 L 23.777344 6.726562 C 21.609375 4.585938 18.09375 4.585938 15.925781 6.726562 C 13.753906 8.867188 13.753906 12.335938 15.925781 14.476562 Z M 23.777344 22.226562 " fill-opacity="1" fill-rule="nonzero"/><path fill="#efefef" d="M 30.921875 22.042969 C 30.824219 22.125 30.726562 22.203125 30.621094 22.28125 C 30.726562 22.207031 30.824219 22.125 30.921875 22.042969 Z M 30.921875 22.042969 " fill-opacity="1" fill-rule="nonzero"/><path fill="#efefef" d="M 30.421875 22.417969 C 30.285156 22.507812 30.144531 22.589844 30 22.664062 C 30.144531 22.589844 30.285156 22.507812 30.421875 22.417969 Z M 30.421875 22.417969 " fill-opacity="1" fill-rule="nonzero"/><path fill="#efefef" d="M 30 22.664062 C 29.886719 22.722656 29.773438 22.773438 29.660156 22.820312 C 29.773438 22.773438 29.886719 22.722656 30 22.664062 Z M 30 22.664062 " fill-opacity="1" fill-rule="nonzero"/><path fill="#efefef" d="M 29.476562 22.894531 C 29.222656 22.992188 28.957031 23.066406 28.6875 23.121094 C 28.957031 23.066406 29.222656 22.992188 29.476562 22.894531 Z M 29.476562 22.894531 " fill-opacity="1" fill-rule="nonzero"/><path fill="#efefef" d="M 29.660156 22.824219 C 29.597656 22.847656 29.539062 22.871094 29.476562 22.894531 C 29.539062 22.871094 29.597656 22.847656 29.660156 22.824219 Z M 29.660156 22.824219 " fill-opacity="1" fill-rule="nonzero"/><path fill="#efefef" d="M 31.195312 21.796875 C 31.105469 21.882812 31.015625 21.964844 30.921875 22.042969 C 31.015625 21.964844 31.105469 21.882812 31.195312 21.796875 Z M 31.195312 21.796875 " fill-opacity="1" fill-rule="nonzero"/><path fill="#efefef" d="M 28.6875 23.121094 C 28.664062 23.128906 28.636719 23.132812 28.609375 23.136719 C 28.636719 23.132812 28.664062 23.128906 28.6875 23.121094 Z M 28.6875 23.121094 " fill-opacity="1" fill-rule="nonzero"/><g clip-path="url(#id2)"><path fill="#efefef" d="M 39.921875 6.296875 C 37.515625 3.921875 33.601562 3.921875 31.195312 6.296875 L 27.703125 9.738281 L 24.214844 6.296875 C 21.808594 3.921875 17.894531 3.921875 15.488281 6.296875 L 7.632812 14.046875 C 5.226562 16.421875 5.226562 20.285156 7.632812 22.660156 C 10.039062 25.035156 13.957031 25.035156 16.363281 22.660156 L 19.851562 19.214844 L 23.339844 22.660156 C 25.746094 25.035156 29.664062 25.035156 32.070312 22.660156 L 39.921875 14.910156 C 42.328125 12.535156 42.328125 8.671875 39.921875 6.296875 Z M 15.488281 21.796875 C 13.5625 23.695312 10.433594 23.695312 8.507812 21.796875 C 6.585938 19.898438 6.585938 16.808594 8.507812 14.910156 L 13.742188 9.746094 C 13.480469 11.578125 14.0625 13.503906 15.488281 14.910156 L 18.976562 18.351562 Z M 31.195312 21.796875 C 31.105469 21.882812 31.015625 21.964844 30.921875 22.042969 C 30.824219 22.125 30.726562 22.207031 30.625 22.28125 C 30.558594 22.328125 30.488281 22.375 30.421875 22.417969 C 30.285156 22.507812 30.144531 22.589844 30 22.664062 C 29.886719 22.722656 29.773438 22.773438 29.660156 22.824219 C 29.597656 22.847656 29.539062 22.871094 29.476562 22.894531 C 29.222656 22.992188 28.957031 23.066406 28.6875 23.121094 C 28.664062 23.128906 28.636719 23.132812 28.609375 23.136719 C 27.0625 23.417969 25.40625 22.972656 24.214844 21.796875 L 21.597656 19.210938 L 20.726562 18.351562 L 19.851562 17.488281 L 16.359375 14.046875 C 14.4375 12.144531 14.4375 9.058594 16.359375 7.160156 C 18.285156 5.261719 21.414062 5.261719 23.339844 7.160156 L 25.957031 9.742188 L 26.828125 10.601562 L 27.703125 11.464844 L 31.195312 14.910156 C 33.117188 16.808594 33.117188 19.898438 31.195312 21.796875 Z M 39.046875 14.046875 L 33.8125 19.210938 C 34.074219 17.378906 33.496094 15.449219 32.070312 14.046875 L 28.582031 10.601562 L 32.070312 7.160156 C 33.992188 5.261719 37.125 5.261719 39.046875 7.160156 C 40.972656 9.058594 40.972656 12.148438 39.046875 14.046875 Z M 39.046875 14.046875 " fill-opacity="1" fill-rule="nonzero"/></g><g fill="#00a19a" fill-opacity="1"><g transform="translate(48.252247, 21.052225)"><g><path d="M 11 -3.296875 L 11 0 L 1.1875 0 L 1.1875 -13.78125 L 10.828125 -13.78125 L 10.828125 -10.484375 L 4.96875 -10.484375 L 4.96875 -8.53125 L 9.96875 -8.53125 L 9.96875 -5.46875 L 4.96875 -5.46875 L 4.96875 -3.296875 Z M 11 -3.296875 "/></g></g></g><g fill="#00a19a" fill-opacity="1"><g transform="translate(61.606077, 21.052225)"><g><path d="M -0.15625 0 L 4.984375 -13.78125 L 8.046875 -13.78125 L 13.171875 0 L 9.171875 0 L 8.34375 -2.703125 L 4.671875 -2.703125 L 3.859375 0 Z M 6.515625 -9.84375 L 5.234375 -5.21875 L 7.75 -5.21875 Z M 6.515625 -9.84375 "/></g></g></g><g fill="#00a19a" fill-opacity="1"><g transform="translate(76.396141, 21.052225)"><g><path d="M 0.53125 -2.8125 L 6.96875 -10.484375 L 0.8125 -10.484375 L 0.8125 -13.78125 L 11.328125 -13.78125 L 11.328125 -10.96875 L 5.28125 -3.296875 L 11.453125 -3.296875 L 11.453125 0 L 0.53125 0 Z M 0.53125 -2.8125 "/></g></g></g><g fill="#00a19a" fill-opacity="1"><g transform="translate(90.235183, 21.052225)"><g><path d="M 3.84375 -13.78125 L 6.3125 -7.828125 L 8.828125 -13.78125 L 12.9375 -13.78125 L 8.1875 -4.5625 L 8.1875 0 L 4.421875 0 L 4.421875 -4.59375 L -0.25 -13.78125 Z M 3.84375 -13.78125 "/></g></g></g><g fill="#00a19a" fill-opacity="1"><g transform="translate(104.65648, 21.052225)"><g/></g></g><g fill="#00a19a" fill-opacity="1"><g transform="translate(110.790297, 21.052225)"><g><path d="M 4.96875 -6.765625 L 4.96875 0 L 1.1875 0 L 1.1875 -13.78125 L 4.140625 -13.78125 L 9.671875 -6.765625 L 9.671875 -13.78125 L 13.453125 -13.78125 L 13.453125 0 L 10.4375 0 Z M 4.96875 -6.765625 "/></g></g></g><g fill="#00a19a" fill-opacity="1"><g transform="translate(127.191278, 21.052225)"><g><path d="M 1.1875 0 L 1.1875 -13.78125 L 10.640625 -13.78125 L 10.640625 -10.484375 L 4.96875 -10.484375 L 4.96875 -8.1875 L 9.59375 -8.1875 L 9.59375 -5.125 L 4.96875 -5.125 L 4.96875 0 Z M 1.1875 0 "/></g></g></g><g fill="#00a19a" fill-opacity="1"><g transform="translate(139.807575, 21.052225)"><g><path d="M 11.921875 -10.484375 L 7.953125 -10.484375 L 7.953125 0 L 4.171875 0 L 4.171875 -10.484375 L 0.1875 -10.484375 L 0.1875 -13.78125 L 11.921875 -13.78125 Z M 11.921875 -10.484375 "/></g></g></g><g fill="#ffb300" fill-opacity="1"><g transform="translate(76.066573, 21.296779)"><g><path d="M 0.53125 -2.859375 L 7.0625 -10.625 L 0.828125 -10.625 L 0.828125 -13.96875 L 11.484375 -13.96875 L 11.484375 -11.109375 L 5.34375 -3.34375 L 11.609375 -3.34375 L 11.609375 0 L 0.53125 0 Z M 0.53125 -2.859375 "/></g></g></g></svg>